;TYPE=PLATED
;Layer: PTH_Through
;EasyEDA Pro v2.2.37.3, 2025-05-01 14:47:59
;Gerber Generator version 0.3
M48
METRIC,LZ,0000.00000
;Hole size 1 = 0.88900 METRIC
T01C0.88900
;Hole size 2 = 0.91440 METRIC
T02C0.91440
;Hole size 3 = 1.00000 METRIC
T03C1.00000
;Hole size 4 = 1.10002 METRIC
T04C1.10002
%
G05
G90
T01
X-7.54205Y40.64
X-7.54205Y38.1
X-7.54205Y33.02
X-7.54205Y30.48
X-7.54205Y27.94
X-7.54205Y25.4
X-7.54205Y22.86
X-7.54205Y20.32
X-7.54205Y17.78
X-7.54205Y15.24
X-7.54205Y12.7
X7.69795Y12.7
X7.69795Y15.24
X7.69795Y17.78
X7.69795Y20.32
X7.69795Y22.86
X7.69795Y25.4
X7.69795Y27.94
X7.69795Y30.48
X7.69795Y33.02
X7.69795Y35.56
X7.69795Y38.1
X7.69795Y40.64
X-7.54205Y35.56
T02
X24.20795Y-21.59
X24.20795Y-19.05
X26.74795Y-21.59
X26.74795Y-19.05
X29.28795Y-21.59
X29.28795Y-19.05
X31.82795Y-21.59
X31.82795Y-19.05
T03
X-0.42205Y-20.955G85X0.57795Y-20.955
X-0.42205Y-18.415G85X0.57795Y-18.415
X-0.42205Y-15.875G85X0.57795Y-15.875
X-46.24238Y-15.08506
X-28.46238Y-15.08506
X-46.24263Y-12.54493
X-46.24238Y-17.62493
X-28.46238Y-12.54493
X-28.46238Y-17.62493
X-39.72131Y24.21598
X-57.50131Y24.21598
X-39.72106Y21.67585
X-39.72131Y26.75585
X-57.50131Y21.67585
X-57.50131Y26.75585
X45.16308Y32.385
X47.70295Y32.385
X50.24308Y32.38525
X45.16308Y14.605
X47.70295Y14.605
X50.24308Y14.605
T04
X16.58795Y40.64
X16.58795Y38.1
M30