G04 Layer: BottomSolderMaskLayer*
G04 EasyEDA Pro v2.2.37.3, 2025-05-01 14:47:59*
G04 Gerber Generator version 0.3*
G04 Scale: 100 percent, Rotated: No, Reflected: No*
G04 Dimensions in millimeters*
G04 Leading zeros omitted, absolute positions, 4 integers and 5 decimals*
%FSLAX45Y45*%
%MOMM*%
%AMRoundRect*1,1,$1,$2,$3*1,1,$1,$4,$5*1,1,$1,0-$2,0-$3*1,1,$1,0-$4,0-$5*20,1,$1,$2,$3,$4,$5,0*20,1,$1,$4,$5,0-$2,0-$3,0*20,1,$1,0-$2,0-$3,0-$4,0-$5,0*20,1,$1,0-$4,0-$5,$2,$3,0*4,1,4,$2,$3,$4,$5,0-$2,0-$3,0-$4,0-$5,$2,$3,0*%
%ADD10RoundRect,0.18181X0.77269X-0.77269X-0.77269X-0.77269*%
%ADD11C,1.7272*%
%ADD12RoundRect,0.18313X-0.83553X0.83553X0.83553X0.83553*%
%ADD13C,1.8542*%
%ADD14RoundRect,0.09645X0.90257X0.90257X0.90257X-0.90257*%
%ADD15C,1.9016*%
%ADD16O,2.59999X1.6*%
%ADD17C,2.2032*%
%ADD18RoundRect,0.18604X-1.00858X1.00858X1.00858X1.00858*%
%ADD19RoundRect,0.18604X1.00858X-1.00858X-1.00858X-1.00858*%
%ADD20RoundRect,0.18604X1.00858X1.00858X1.00858X-1.00858*%
G75*


G04 Pad Start*
G54D10*
G01X2420795Y-2159000D03*
G54D11*
G01X2420795Y-1905000D03*
G01X2674795Y-2159000D03*
G01X2674795Y-1905000D03*
G01X2928795Y-2159000D03*
G01X2928795Y-1905000D03*
G01X3182795Y-2159000D03*
G01X3182795Y-1905000D03*
G54D12*
G01X-754205Y4064000D03*
G54D13*
G01X-754205Y3810000D03*
G01X-754205Y3302000D03*
G01X-754205Y3048000D03*
G01X-754205Y2794000D03*
G01X-754205Y2540000D03*
G01X-754205Y2286000D03*
G01X-754205Y2032000D03*
G01X-754205Y1778000D03*
G01X-754205Y1524000D03*
G01X-754205Y1270000D03*
G01X769795Y1270000D03*
G01X769795Y1524000D03*
G01X769795Y1778000D03*
G01X769795Y2032000D03*
G01X769795Y2286000D03*
G01X769795Y2540000D03*
G01X769795Y2794000D03*
G01X769795Y3048000D03*
G01X769795Y3302000D03*
G01X769795Y3556000D03*
G01X769795Y3810000D03*
G01X769795Y4064000D03*
G01X-754205Y3556000D03*
G54D14*
G01X1658795Y4064000D03*
G54D15*
G01X1658795Y3810000D03*
G54D16*
G01X7795Y-2095500D03*
G01X7795Y-1841500D03*
G01X7795Y-1587500D03*
G54D17*
G01X-4624212Y-1508519D03*
G01X-2846238Y-1508519D03*
G01X-4624238Y-1254506D03*
G54D18*
G01X-4624238Y-1762506D03*
G01X-2846238Y-1254506D03*
G54D17*
G01X-2846238Y-1762506D03*
G01X-3972156Y2421611D03*
G01X-5750131Y2421611D03*
G01X-3972131Y2167598D03*
G54D19*
G01X-3972131Y2675598D03*
G01X-5750131Y2167598D03*
G54D17*
G01X-5750131Y2675598D03*
G54D20*
G01X4516295Y3238500D03*
G54D17*
G01X4770282Y3238475D03*
G01X5024295Y3238500D03*
G01X4516295Y1460500D03*
G01X4770282Y1460500D03*
G54D20*
G01X5024295Y1460500D03*
G04 Pad End*

M02*

