G04 Layer: BottomLayer*
G04 EasyEDA Pro v2.2.37.3, 2025-05-01 14:47:59*
G04 Gerber Generator version 0.3*
G04 Scale: 100 percent, Rotated: No, Reflected: No*
G04 Dimensions in millimeters*
G04 Leading zeros omitted, absolute positions, 4 integers and 5 decimals*
%FSLAX45Y45*%
%MOMM*%
%ADD10R,1.524X1.524*%
%ADD11C,1.524*%
%ADD12R,1.651X1.651*%
%ADD13C,1.651*%
%ADD14R,1.8X1.8*%
%ADD15C,1.8*%
%ADD16O,2.49999X1.5*%
%ADD17C,2.0*%
%ADD18R,2.0X2.0*%
%ADD19R,2.0X2.0*%
%ADD20R,2.0X2.0*%
%ADD21C,0.381*%
G75*


G04 Pad Start*
G54D10*
G01X2420795Y-2159000D03*
G54D11*
G01X2420795Y-1905000D03*
G01X2674795Y-2159000D03*
G01X2674795Y-1905000D03*
G01X2928795Y-2159000D03*
G01X2928795Y-1905000D03*
G01X3182795Y-2159000D03*
G01X3182795Y-1905000D03*
G54D12*
G01X-754205Y4064000D03*
G54D13*
G01X-754205Y3810000D03*
G01X-754205Y3302000D03*
G01X-754205Y3048000D03*
G01X-754205Y2794000D03*
G01X-754205Y2540000D03*
G01X-754205Y2286000D03*
G01X-754205Y2032000D03*
G01X-754205Y1778000D03*
G01X-754205Y1524000D03*
G01X-754205Y1270000D03*
G01X769795Y1270000D03*
G01X769795Y1524000D03*
G01X769795Y1778000D03*
G01X769795Y2032000D03*
G01X769795Y2286000D03*
G01X769795Y2540000D03*
G01X769795Y2794000D03*
G01X769795Y3048000D03*
G01X769795Y3302000D03*
G01X769795Y3556000D03*
G01X769795Y3810000D03*
G01X769795Y4064000D03*
G01X-754205Y3556000D03*
G54D14*
G01X1658795Y4064000D03*
G54D15*
G01X1658795Y3810000D03*
G54D16*
G01X7795Y-2095500D03*
G01X7795Y-1841500D03*
G01X7795Y-1587500D03*
G54D17*
G01X-4624212Y-1508519D03*
G01X-2846238Y-1508519D03*
G01X-4624238Y-1254506D03*
G54D18*
G01X-4624238Y-1762506D03*
G01X-2846238Y-1254506D03*
G54D17*
G01X-2846238Y-1762506D03*
G01X-3972156Y2421611D03*
G01X-5750131Y2421611D03*
G01X-3972131Y2167598D03*
G54D19*
G01X-3972131Y2675598D03*
G01X-5750131Y2167598D03*
G54D17*
G01X-5750131Y2675598D03*
G54D20*
G01X4516295Y3238500D03*
G54D17*
G01X4770282Y3238475D03*
G01X5024295Y3238500D03*
G01X4516295Y1460500D03*
G01X4770282Y1460500D03*
G54D20*
G01X5024295Y1460500D03*
G04 Pad End*

G04 Track Start*
G54D21*
G01X769795Y4064000D02*
G01X1658795Y4064000D01*
G01X-3972156Y2421611D02*
G01X-2968094Y2421611D01*
G01X-2214705Y3175000D01*
G01X-3972131Y2675598D02*
G01X-3158607Y2675598D01*
G01X-2278205Y3556000D02*
G01X-754205Y3556000D01*
G01X-3158607Y2675598D02*
G01X-2278205Y3556000D01*
G01X-754205Y3556000D02*
G01X-55705Y3556000D01*
G01X198295Y3810000D01*
G01X769795Y3810000D01*
G01X-754205Y3302000D02*
G01X-754205Y3556000D01*
G01X-2087705Y2921000D02*
G01X-2849705Y2159000D01*
G01X-3963533Y2159000D01*
G01X-3972131Y2167598D01*
G01X-4624212Y-1508519D02*
G01X-4639694Y-1524000D01*
G01X-5135705Y-1524000D01*
G01X-5153666Y-1506039D01*
G01X-5153666Y1887039D01*
G01X-4627705Y2413000D01*
G01X-3980767Y2413000D01*
G01X-3972156Y2421611D01*
G01X-4809607Y2675598D02*
G01X-3972131Y2675598D01*
G01X-5643705Y1841500D02*
G01X-4809607Y2675598D01*
G01X-5643705Y-1460500D02*
G01X-5643705Y1841500D01*
G01X-4624238Y-1254506D02*
G01X-829732Y2540000D01*
G01X-754205Y2540000D01*
G01X-3944686Y-1508519D02*
G01X-4624212Y-1508519D01*
G01X-3484705Y-1968500D02*
G01X-3944686Y-1508519D01*
G01X769795Y3810000D02*
G01X1658795Y3810000D01*
G01X769795Y2286000D02*
G01X4071795Y2286000D01*
G01X4770295Y1587500D01*
G01X4770295Y1460513D01*
G01X769795Y2540000D02*
G01X4643295Y2540000D01*
G01X5405295Y1778000D01*
G01X5405295Y1079500D01*
G01X5341795Y1016000D01*
G01X4643295Y1016000D01*
G01X4516295Y1143000D01*
G01X4516295Y1460500D01*
G01X769795Y2794000D02*
G01X4897295Y2794000D01*
G01X5024295Y2921000D01*
G01X5024295Y3238500D01*
G01X1658795Y3810000D02*
G01X4135295Y3810000D01*
G01X4516295Y3429000D02*
G01X4516295Y3238500D01*
G01X4135295Y3810000D02*
G01X4516295Y3429000D01*
G01X2674795Y-2159000D02*
G01X2547795Y-2032000D01*
G01X3246295Y-2159000D02*
G01X3182795Y-2159000D01*
G01X3436795Y-1968500D02*
G01X3246295Y-2159000D01*
G01X2357295Y1778000D02*
G01X3436795Y698500D01*
G01X769795Y1778000D02*
G01X2357295Y1778000D01*
G01X3436795Y698500D02*
G01X3436795Y-1968500D01*
G01X2103295Y1524000D02*
G01X769795Y1524000D01*
G01X2928795Y698500D02*
G01X2103295Y1524000D01*
G01X2928795Y-1905000D02*
G01X2928795Y698500D01*
G01X2674795Y-1079500D02*
G01X769795Y825500D01*
G01X769795Y1270000D01*
G01X2674795Y-1079500D02*
G01X2674795Y-1905000D01*
G01X2547795Y-1460500D02*
G01X-436705Y1524000D01*
G01X2547795Y-1460500D02*
G01X2547795Y-2032000D01*
G01X-436705Y1524000D02*
G01X-754205Y1524000D01*
G01X-754205Y2032000D02*
G01X-1008205Y2032000D01*
G01X-1135205Y1905000D01*
G01X-1135205Y-1524000D02*
G01X-817705Y-1841500D01*
G01X-1135205Y1905000D02*
G01X-1135205Y-1524000D01*
G01X-4627705Y-2032000D02*
G01X-4627705Y-1765973D01*
G01X-4624238Y-1762506D01*
G01X2420795Y-2159000D02*
G01X2230295Y-2349500D01*
G01X-4310205Y-2349500D02*
G01X-4627705Y-2032000D01*
G01X-4624238Y-1762506D02*
G01X-5341699Y-1762506D01*
G01X-5643705Y-1460500D01*
G01X769795Y3302000D02*
G01X3754295Y3302000D01*
G01X4071795Y2984500D01*
G01X4706795Y2984500D01*
G01X4770295Y3048000D01*
G01X4770295Y3238462D01*
G01X769795Y2032000D02*
G01X2547795Y2032000D01*
G01X3690795Y889000D01*
G01X3690795Y-2286000D01*
G01X3563795Y-2413000D01*
G01X3055795Y-2413000D01*
G01X2928795Y-2286000D02*
G01X2928795Y-2159000D01*
G01X3055795Y-2413000D02*
G01X2928795Y-2286000D01*
G01X-2214705Y3175000D02*
G01X325295Y3175000D01*
G01X452295Y3302000D01*
G01X769795Y3302000D01*
G01X769795Y3048000D02*
G01X515795Y3048000D01*
G01X388795Y2921000D01*
G01X-2087705Y2921000D01*
G01X7795Y-1587500D02*
G01X388795Y-1587500D01*
G01X515795Y-1714500D01*
G01X515795Y-1901736D01*
G01X519059Y-1905000D01*
G01X2420795Y-1905000D01*
G01X519059Y-1905000D02*
G01X455559Y-1968500D01*
G01X-3484705Y-1968500D02*
G01X455559Y-1968500D01*
G01X-817705Y-1841500D02*
G01X7795Y-1841500D01*
G01X7795Y-2095500D02*
G01X7795Y-2343124D01*
G01X14171Y-2349500D01*
G01X2230295Y-2349500D02*
G01X14171Y-2349500D01*
G01X-4310205Y-2349500D01*
G04 Track End*

M02*

