G04 Layer: TopSilkscreenLayer*
G04 EasyEDA Pro v2.2.37.3, 2025-05-01 14:47:59*
G04 Gerber Generator version 0.3*
G04 Scale: 100 percent, Rotated: No, Reflected: No*
G04 Dimensions in millimeters*
G04 Leading zeros omitted, absolute positions, 4 integers and 5 decimals*
%FSLAX45Y45*%
%MOMM*%
%ADD10C,0.203*%
%ADD11C,0.17*%
%ADD12C,0.08999*%
%ADD13C,0.1524*%
%ADD14C,0.2032*%
%ADD15C,0.2547*%
%ADD16C,0.254*%
G75*


G04 Text Start*
G54D10*
G01X24940Y-1984807D02*
G01X57452Y-2069897D01*
G01X89710Y-1984807D02*
G01X57452Y-2069897D01*
G01X81582Y-1547012D02*
G01X73454Y-1538884D01*
G01X61516Y-1534820D01*
G01X45260Y-1534820D01*
G01X33068Y-1538884D01*
G01X24940Y-1547012D01*
G01X24940Y-1555140D01*
G01X29004Y-1563268D01*
G01X33068Y-1567332D01*
G01X41196Y-1571396D01*
G01X65580Y-1579524D01*
G01X73454Y-1583588D01*
G01X77518Y-1587652D01*
G01X81582Y-1595780D01*
G01X81582Y-1607718D01*
G01X73454Y-1615846D01*
G01X61516Y-1619910D01*
G01X45260Y-1619910D01*
G01X33068Y-1615846D01*
G01X24940Y-1607718D01*
G54D11*
G01X2407257Y-1574800D02*
G01X2497935Y-1574800D01*
G01X2407257Y-1574800D02*
G01X2497935Y-1514348D01*
G01X2407257Y-1514348D02*
G01X2497935Y-1514348D01*
G01X2407257Y-1476756D02*
G01X2497935Y-1476756D01*
G01X2407257Y-1476756D02*
G01X2407257Y-1437894D01*
G01X2411575Y-1424940D01*
G01X2415893Y-1420622D01*
G01X2424529Y-1416304D01*
G01X2433165Y-1416304D01*
G01X2441801Y-1420622D01*
G01X2446119Y-1424940D01*
G01X2450437Y-1437894D01*
G01X2450437Y-1476756D01*
G01X2450437Y-1446530D02*
G01X2497935Y-1416304D01*
G01X2407257Y-1378712D02*
G01X2497935Y-1378712D01*
G01X2407257Y-1378712D02*
G01X2407257Y-1322578D01*
G01X2450437Y-1378712D02*
G01X2450437Y-1344168D01*
G01X2428847Y-1280668D02*
G01X2424529Y-1280668D01*
G01X2415893Y-1276350D01*
G01X2411575Y-1272032D01*
G01X2407257Y-1263396D01*
G01X2407257Y-1246124D01*
G01X2411575Y-1237488D01*
G01X2415893Y-1233170D01*
G01X2424529Y-1228852D01*
G01X2433165Y-1228852D01*
G01X2441801Y-1233170D01*
G01X2454755Y-1241806D01*
G01X2497935Y-1284986D01*
G01X2497935Y-1224534D01*
G01X2407257Y-1143762D02*
G01X2467709Y-1186942D01*
G01X2467709Y-1122172D01*
G01X2407257Y-1143762D02*
G01X2497935Y-1143762D01*
G01X2407257Y-1084580D02*
G01X2497935Y-1084580D01*
G01X2497935Y-1084580D02*
G01X2497935Y-1032764D01*
G01X2407257Y-969264D02*
G01X2411575Y-982218D01*
G01X2424529Y-990854D01*
G01X2446119Y-995172D01*
G01X2459073Y-995172D01*
G01X2480663Y-990854D01*
G01X2493617Y-982218D01*
G01X2497935Y-969264D01*
G01X2497935Y-960628D01*
G01X2493617Y-947674D01*
G01X2480663Y-939038D01*
G01X2459073Y-934720D01*
G01X2446119Y-934720D01*
G01X2424529Y-939038D01*
G01X2411575Y-947674D01*
G01X2407257Y-960628D01*
G01X2407257Y-969264D01*
G01X2424529Y-897128D02*
G01X2420211Y-888492D01*
G01X2407257Y-875538D01*
G01X2497935Y-875538D01*
G01X2420211Y-799084D02*
G01X2497935Y-799084D01*
G01X2459073Y-837946D02*
G01X2459073Y-760222D01*
G54D12*
G01X2471704Y-2038607D02*
G01X2473482Y-2042163D01*
G01X2477038Y-2045719D01*
G01X2480340Y-2047497D01*
G01X2487452Y-2047497D01*
G01X2491008Y-2045719D01*
G01X2494564Y-2042163D01*
G01X2496088Y-2038607D01*
G01X2497866Y-2033527D01*
G01X2497866Y-2024637D01*
G01X2496088Y-2019303D01*
G01X2494564Y-2016001D01*
G01X2491008Y-2012445D01*
G01X2487452Y-2010667D01*
G01X2480340Y-2010667D01*
G01X2477038Y-2012445D01*
G01X2473482Y-2016001D01*
G01X2471704Y-2019303D01*
G01X2471704Y-2024637D01*
G01X2480340Y-2024637D02*
G01X2471704Y-2024637D01*
G01X2454178Y-2047497D02*
G01X2454178Y-2010667D01*
G01X2454178Y-2047497D02*
G01X2429794Y-2010667D01*
G01X2429794Y-2047497D02*
G01X2429794Y-2010667D01*
G01X2412268Y-2047497D02*
G01X2412268Y-2010667D01*
G01X2412268Y-2047497D02*
G01X2400076Y-2047497D01*
G01X2394996Y-2045719D01*
G01X2391440Y-2042163D01*
G01X2389662Y-2038607D01*
G01X2387884Y-2033527D01*
G01X2387884Y-2024637D01*
G01X2389662Y-2019303D01*
G01X2391440Y-2016001D01*
G01X2394996Y-2012445D01*
G01X2400076Y-2010667D01*
G01X2412268Y-2010667D01*
G01X2525034Y-1791147D02*
G01X2525034Y-1765239D01*
G01X2537988Y-1778193D02*
G01X2512080Y-1778193D01*
G01X2493284Y-1795465D02*
G01X2477536Y-1795465D01*
G01X2486172Y-1784035D01*
G01X2481854Y-1784035D01*
G01X2478806Y-1782511D01*
G01X2477536Y-1781241D01*
G01X2476012Y-1776923D01*
G01X2476012Y-1773875D01*
G01X2477536Y-1769557D01*
G01X2480330Y-1766763D01*
G01X2484648Y-1765239D01*
G01X2488966Y-1765239D01*
G01X2493284Y-1766763D01*
G01X2494808Y-1768287D01*
G01X2496078Y-1771081D01*
G01X2458740Y-1772605D02*
G01X2460010Y-1771081D01*
G01X2458740Y-1769557D01*
G01X2457216Y-1771081D01*
G01X2458740Y-1772605D01*
G01X2438420Y-1795465D02*
G01X2422672Y-1795465D01*
G01X2431308Y-1784035D01*
G01X2426990Y-1784035D01*
G01X2423942Y-1782511D01*
G01X2422672Y-1781241D01*
G01X2421148Y-1776923D01*
G01X2421148Y-1773875D01*
G01X2422672Y-1769557D01*
G01X2425466Y-1766763D01*
G01X2429784Y-1765239D01*
G01X2434102Y-1765239D01*
G01X2438420Y-1766763D01*
G01X2439944Y-1768287D01*
G01X2441214Y-1771081D01*
G01X2405146Y-1795465D02*
G01X2393716Y-1765239D01*
G01X2382286Y-1795465D02*
G01X2393716Y-1765239D01*
G01X2689624Y-2040392D02*
G01X2691402Y-2043948D01*
G01X2694958Y-2047504D01*
G01X2698260Y-2049282D01*
G01X2705372Y-2049282D01*
G01X2708928Y-2047504D01*
G01X2712484Y-2043948D01*
G01X2714008Y-2040392D01*
G01X2715786Y-2035312D01*
G01X2715786Y-2026422D01*
G01X2714008Y-2021088D01*
G01X2712484Y-2017786D01*
G01X2708928Y-2014230D01*
G01X2705372Y-2012452D01*
G01X2698260Y-2012452D01*
G01X2694958Y-2014230D01*
G01X2691402Y-2017786D01*
G01X2689624Y-2021088D01*
G01X2672098Y-2049282D02*
G01X2672098Y-2012452D01*
G01X2672098Y-2049282D02*
G01X2649492Y-2049282D01*
G01X2672098Y-2031756D02*
G01X2658128Y-2031756D01*
G01X2672098Y-2012452D02*
G01X2649492Y-2012452D01*
G01X2724112Y-1788193D02*
G01X2725890Y-1791749D01*
G01X2729446Y-1795305D01*
G01X2732748Y-1797083D01*
G01X2739860Y-1797083D01*
G01X2743416Y-1795305D01*
G01X2746972Y-1791749D01*
G01X2748496Y-1788193D01*
G01X2750274Y-1783113D01*
G01X2750274Y-1774223D01*
G01X2748496Y-1768889D01*
G01X2746972Y-1765587D01*
G01X2743416Y-1762031D01*
G01X2739860Y-1760253D01*
G01X2732748Y-1760253D01*
G01X2729446Y-1762031D01*
G01X2725890Y-1765587D01*
G01X2724112Y-1768889D01*
G01X2682202Y-1791749D02*
G01X2685758Y-1795305D01*
G01X2690838Y-1797083D01*
G01X2697950Y-1797083D01*
G01X2703284Y-1795305D01*
G01X2706586Y-1791749D01*
G01X2706586Y-1788193D01*
G01X2705062Y-1784637D01*
G01X2703284Y-1783113D01*
G01X2699728Y-1781335D01*
G01X2689314Y-1777779D01*
G01X2685758Y-1776001D01*
G01X2683980Y-1774223D01*
G01X2682202Y-1770667D01*
G01X2682202Y-1765587D01*
G01X2685758Y-1762031D01*
G01X2690838Y-1760253D01*
G01X2697950Y-1760253D01*
G01X2703284Y-1762031D01*
G01X2706586Y-1765587D01*
G01X2664676Y-1797083D02*
G01X2664676Y-1760253D01*
G01X2664676Y-1797083D02*
G01X2640292Y-1760253D01*
G01X2640292Y-1797083D02*
G01X2640292Y-1760253D01*
G01X2978056Y-2047573D02*
G01X2981612Y-2051129D01*
G01X2986692Y-2052907D01*
G01X2993804Y-2052907D01*
G01X2999138Y-2051129D01*
G01X3002440Y-2047573D01*
G01X3002440Y-2044017D01*
G01X3000662Y-2040461D01*
G01X2999138Y-2038937D01*
G01X2995582Y-2037159D01*
G01X2984914Y-2033603D01*
G01X2981612Y-2031825D01*
G01X2979834Y-2030047D01*
G01X2978056Y-2026491D01*
G01X2978056Y-2021411D01*
G01X2981612Y-2017855D01*
G01X2986692Y-2016077D01*
G01X2993804Y-2016077D01*
G01X2999138Y-2017855D01*
G01X3002440Y-2021411D01*
G01X2934368Y-2044017D02*
G01X2936146Y-2047573D01*
G01X2939702Y-2051129D01*
G01X2943258Y-2052907D01*
G01X2950116Y-2052907D01*
G01X2953672Y-2051129D01*
G01X2957228Y-2047573D01*
G01X2959006Y-2044017D01*
G01X2960530Y-2038937D01*
G01X2960530Y-2030047D01*
G01X2959006Y-2024713D01*
G01X2957228Y-2021411D01*
G01X2953672Y-2017855D01*
G01X2950116Y-2016077D01*
G01X2943258Y-2016077D01*
G01X2939702Y-2017855D01*
G01X2936146Y-2021411D01*
G01X2934368Y-2024713D01*
G01X2916842Y-2052907D02*
G01X2916842Y-2016077D01*
G01X2892458Y-2052907D02*
G01X2916842Y-2028269D01*
G01X2908206Y-2037159D02*
G01X2892458Y-2016077D01*
G01X3024236Y-1797075D02*
G01X3024236Y-1760245D01*
G01X3024236Y-1797075D02*
G01X3010266Y-1760245D01*
G01X2996296Y-1797075D02*
G01X3010266Y-1760245D01*
G01X2996296Y-1797075D02*
G01X2996296Y-1760245D01*
G01X2968356Y-1797075D02*
G01X2971912Y-1795297D01*
G01X2975468Y-1791741D01*
G01X2977246Y-1788185D01*
G01X2978770Y-1783105D01*
G01X2978770Y-1774215D01*
G01X2977246Y-1768881D01*
G01X2975468Y-1765579D01*
G01X2971912Y-1762023D01*
G01X2968356Y-1760245D01*
G01X2961498Y-1760245D01*
G01X2957942Y-1762023D01*
G01X2954386Y-1765579D01*
G01X2952608Y-1768881D01*
G01X2950830Y-1774215D01*
G01X2950830Y-1783105D01*
G01X2952608Y-1788185D01*
G01X2954386Y-1791741D01*
G01X2957942Y-1795297D01*
G01X2961498Y-1797075D01*
G01X2968356Y-1797075D01*
G01X2908920Y-1791741D02*
G01X2912476Y-1795297D01*
G01X2917556Y-1797075D01*
G01X2924668Y-1797075D01*
G01X2930002Y-1795297D01*
G01X2933304Y-1791741D01*
G01X2933304Y-1788185D01*
G01X2931780Y-1784629D01*
G01X2930002Y-1783105D01*
G01X2926446Y-1781327D01*
G01X2916032Y-1777771D01*
G01X2912476Y-1775993D01*
G01X2910698Y-1774215D01*
G01X2908920Y-1770659D01*
G01X2908920Y-1765579D01*
G01X2912476Y-1762023D01*
G01X2917556Y-1760245D01*
G01X2924668Y-1760245D01*
G01X2930002Y-1762023D01*
G01X2933304Y-1765579D01*
G01X2891394Y-1797075D02*
G01X2891394Y-1760245D01*
G01X3270964Y-2052889D02*
G01X3270964Y-2016059D01*
G01X3270964Y-2052889D02*
G01X3256994Y-2016059D01*
G01X3243024Y-2052889D02*
G01X3256994Y-2016059D01*
G01X3243024Y-2052889D02*
G01X3243024Y-2016059D01*
G01X3225498Y-2052889D02*
G01X3225498Y-2016059D01*
G01X3183588Y-2047555D02*
G01X3187144Y-2051111D01*
G01X3192224Y-2052889D01*
G01X3199336Y-2052889D01*
G01X3204670Y-2051111D01*
G01X3207972Y-2047555D01*
G01X3207972Y-2043999D01*
G01X3206448Y-2040443D01*
G01X3204670Y-2038919D01*
G01X3201114Y-2037141D01*
G01X3190700Y-2033585D01*
G01X3187144Y-2031807D01*
G01X3185366Y-2030029D01*
G01X3183588Y-2026473D01*
G01X3183588Y-2021393D01*
G01X3187144Y-2017837D01*
G01X3192224Y-2016059D01*
G01X3199336Y-2016059D01*
G01X3204670Y-2017837D01*
G01X3207972Y-2021393D01*
G01X3155648Y-2052889D02*
G01X3159204Y-2051111D01*
G01X3162760Y-2047555D01*
G01X3164538Y-2043999D01*
G01X3166062Y-2038919D01*
G01X3166062Y-2030029D01*
G01X3164538Y-2024695D01*
G01X3162760Y-2021393D01*
G01X3159204Y-2017837D01*
G01X3155648Y-2016059D01*
G01X3148790Y-2016059D01*
G01X3145234Y-2017837D01*
G01X3141678Y-2021393D01*
G01X3139900Y-2024695D01*
G01X3138122Y-2030029D01*
G01X3138122Y-2038919D01*
G01X3139900Y-2043999D01*
G01X3141678Y-2047555D01*
G01X3145234Y-2051111D01*
G01X3148790Y-2052889D01*
G01X3155648Y-2052889D01*
G01X3247372Y-1793466D02*
G01X3247372Y-1756636D01*
G01X3229846Y-1793466D02*
G01X3229846Y-1756636D01*
G01X3229846Y-1793466D02*
G01X3214098Y-1793466D01*
G01X3209018Y-1791688D01*
G01X3207240Y-1789910D01*
G01X3205462Y-1786354D01*
G01X3205462Y-1782798D01*
G01X3207240Y-1779496D01*
G01X3209018Y-1777718D01*
G01X3214098Y-1775940D01*
G01X3229846Y-1775940D01*
G01X3217654Y-1775940D02*
G01X3205462Y-1756636D01*
G01X3177522Y-1793466D02*
G01X3181078Y-1791688D01*
G01X3184634Y-1788132D01*
G01X3186412Y-1784576D01*
G01X3187936Y-1779496D01*
G01X3187936Y-1770606D01*
G01X3186412Y-1765272D01*
G01X3184634Y-1761970D01*
G01X3181078Y-1758414D01*
G01X3177522Y-1756636D01*
G01X3170664Y-1756636D01*
G01X3167108Y-1758414D01*
G01X3163552Y-1761970D01*
G01X3161774Y-1765272D01*
G01X3159996Y-1770606D01*
G01X3159996Y-1779496D01*
G01X3161774Y-1784576D01*
G01X3163552Y-1788132D01*
G01X3167108Y-1791688D01*
G01X3170664Y-1793466D01*
G01X3177522Y-1793466D01*
G01X3172188Y-1763748D02*
G01X3161774Y-1753080D01*
G54D13*
G01X-595201Y4105910D02*
G01X-595201Y4032504D01*
G01X-619585Y4105910D02*
G01X-570563Y4105910D01*
G01X-538559Y4105910D02*
G01X-489537Y4032504D01*
G01X-489537Y4105910D02*
G01X-538559Y4032504D01*
G01X-619585Y3851910D02*
G01X-619585Y3778504D01*
G01X-619585Y3851910D02*
G01X-588089Y3851910D01*
G01X-577675Y3848354D01*
G01X-574119Y3844798D01*
G01X-570563Y3837940D01*
G01X-570563Y3830828D01*
G01X-574119Y3823970D01*
G01X-577675Y3820414D01*
G01X-588089Y3816858D01*
G01X-619585Y3816858D01*
G01X-595201Y3816858D02*
G01X-570563Y3778504D01*
G01X-538559Y3851910D02*
G01X-489537Y3778504D01*
G01X-489537Y3851910D02*
G01X-538559Y3778504D01*
G01X-567261Y3326384D02*
G01X-570563Y3333496D01*
G01X-577675Y3340354D01*
G01X-584533Y3343910D01*
G01X-598503Y3343910D01*
G01X-605615Y3340354D01*
G01X-612473Y3333496D01*
G01X-616029Y3326384D01*
G01X-619585Y3315970D01*
G01X-619585Y3298444D01*
G01X-616029Y3288030D01*
G01X-612473Y3280918D01*
G01X-605615Y3274060D01*
G01X-598503Y3270504D01*
G01X-584533Y3270504D01*
G01X-577675Y3274060D01*
G01X-570563Y3280918D01*
G01X-567261Y3288030D01*
G01X-567261Y3298444D01*
G01X-584533Y3298444D02*
G01X-567261Y3298444D01*
G01X-535257Y3343910D02*
G01X-535257Y3270504D01*
G01X-535257Y3343910D02*
G01X-486235Y3270504D01*
G01X-486235Y3343910D02*
G01X-486235Y3270504D01*
G01X-454231Y3343910D02*
G01X-454231Y3270504D01*
G01X-454231Y3343910D02*
G01X-429847Y3343910D01*
G01X-419179Y3340354D01*
G01X-412321Y3333496D01*
G01X-408765Y3326384D01*
G01X-405209Y3315970D01*
G01X-405209Y3298444D01*
G01X-408765Y3288030D01*
G01X-412321Y3280918D01*
G01X-419179Y3274060D01*
G01X-429847Y3270504D01*
G01X-454231Y3270504D01*
G01X473123Y3834384D02*
G01X469821Y3841496D01*
G01X462709Y3848354D01*
G01X455851Y3851910D01*
G01X441881Y3851910D01*
G01X434769Y3848354D01*
G01X427911Y3841496D01*
G01X424355Y3834384D01*
G01X420799Y3823970D01*
G01X420799Y3806444D01*
G01X424355Y3796030D01*
G01X427911Y3788918D01*
G01X434769Y3782060D01*
G01X441881Y3778504D01*
G01X455851Y3778504D01*
G01X462709Y3782060D01*
G01X469821Y3788918D01*
G01X473123Y3796030D01*
G01X473123Y3806444D01*
G01X455851Y3806444D02*
G01X473123Y3806444D01*
G01X505127Y3851910D02*
G01X505127Y3778504D01*
G01X505127Y3851910D02*
G01X554149Y3778504D01*
G01X554149Y3851910D02*
G01X554149Y3778504D01*
G01X586153Y3851910D02*
G01X586153Y3778504D01*
G01X586153Y3851910D02*
G01X610537Y3851910D01*
G01X621205Y3848354D01*
G01X628063Y3841496D01*
G01X631619Y3834384D01*
G01X635175Y3823970D01*
G01X635175Y3806444D01*
G01X631619Y3796030D01*
G01X628063Y3788918D01*
G01X621205Y3782060D01*
G01X610537Y3778504D01*
G01X586153Y3778504D01*
G01X420037Y4101084D02*
G01X420037Y4036060D01*
G01X420037Y4101084D02*
G01X447977Y4101084D01*
G01X457121Y4098036D01*
G01X460169Y4094988D01*
G01X463471Y4088638D01*
G01X463471Y4082542D01*
G01X460169Y4076446D01*
G01X457121Y4073398D01*
G01X447977Y4070096D01*
G01X420037Y4070096D01*
G01X441627Y4070096D02*
G01X463471Y4036060D01*
G01X518335Y4101084D02*
G01X493697Y4036060D01*
G01X518335Y4101084D02*
G01X543227Y4036060D01*
G01X502841Y4057904D02*
G01X533829Y4057904D01*
G01X573453Y4101084D02*
G01X588693Y4036060D01*
G01X604187Y4101084D02*
G01X588693Y4036060D01*
G01X604187Y4101084D02*
G01X619681Y4036060D01*
G01X635175Y4101084D02*
G01X619681Y4036060D01*
G01X-619585Y3089910D02*
G01X-619585Y3016504D01*
G01X-619585Y3089910D02*
G01X-595201Y3089910D01*
G01X-584533Y3086354D01*
G01X-577675Y3079496D01*
G01X-574119Y3072384D01*
G01X-570563Y3061970D01*
G01X-570563Y3044444D01*
G01X-574119Y3034030D01*
G01X-577675Y3026918D01*
G01X-584533Y3020060D01*
G01X-595201Y3016504D01*
G01X-619585Y3016504D01*
G01X-535003Y3072384D02*
G01X-535003Y3075940D01*
G01X-531447Y3082798D01*
G01X-528145Y3086354D01*
G01X-521033Y3089910D01*
G01X-507063Y3089910D01*
G01X-500205Y3086354D01*
G01X-496649Y3082798D01*
G01X-493093Y3075940D01*
G01X-493093Y3068828D01*
G01X-496649Y3061970D01*
G01X-503507Y3051556D01*
G01X-538559Y3016504D01*
G01X-489537Y3016504D01*
G01X-619585Y2835910D02*
G01X-619585Y2762504D01*
G01X-619585Y2835910D02*
G01X-595201Y2835910D01*
G01X-584533Y2832354D01*
G01X-577675Y2825496D01*
G01X-574119Y2818384D01*
G01X-570563Y2807970D01*
G01X-570563Y2790444D01*
G01X-574119Y2780030D01*
G01X-577675Y2772918D01*
G01X-584533Y2766060D01*
G01X-595201Y2762504D01*
G01X-619585Y2762504D01*
G01X-531447Y2835910D02*
G01X-493093Y2835910D01*
G01X-514175Y2807970D01*
G01X-503507Y2807970D01*
G01X-496649Y2804414D01*
G01X-493093Y2800858D01*
G01X-489537Y2790444D01*
G01X-489537Y2783586D01*
G01X-493093Y2772918D01*
G01X-500205Y2766060D01*
G01X-510619Y2762504D01*
G01X-521033Y2762504D01*
G01X-531447Y2766060D01*
G01X-535003Y2769616D01*
G01X-538559Y2776474D01*
G01X-619585Y2581910D02*
G01X-619585Y2508504D01*
G01X-619585Y2581910D02*
G01X-595201Y2581910D01*
G01X-584533Y2578354D01*
G01X-577675Y2571496D01*
G01X-574119Y2564384D01*
G01X-570563Y2553970D01*
G01X-570563Y2536444D01*
G01X-574119Y2526030D01*
G01X-577675Y2518918D01*
G01X-584533Y2512060D01*
G01X-595201Y2508504D01*
G01X-619585Y2508504D01*
G01X-503507Y2581910D02*
G01X-538559Y2532888D01*
G01X-486235Y2532888D01*
G01X-503507Y2581910D02*
G01X-503507Y2508504D01*
G01X-619585Y2327910D02*
G01X-619585Y2254504D01*
G01X-619585Y2327910D02*
G01X-595201Y2327910D01*
G01X-584533Y2324354D01*
G01X-577675Y2317496D01*
G01X-574119Y2310384D01*
G01X-570563Y2299970D01*
G01X-570563Y2282444D01*
G01X-574119Y2272030D01*
G01X-577675Y2264918D01*
G01X-584533Y2258060D01*
G01X-595201Y2254504D01*
G01X-619585Y2254504D01*
G01X-496649Y2327910D02*
G01X-531447Y2327910D01*
G01X-535003Y2296414D01*
G01X-531447Y2299970D01*
G01X-521033Y2303526D01*
G01X-510619Y2303526D01*
G01X-500205Y2299970D01*
G01X-493093Y2292858D01*
G01X-489537Y2282444D01*
G01X-489537Y2275586D01*
G01X-493093Y2264918D01*
G01X-500205Y2258060D01*
G01X-510619Y2254504D01*
G01X-521033Y2254504D01*
G01X-531447Y2258060D01*
G01X-535003Y2261616D01*
G01X-538559Y2268474D01*
G01X-619585Y2073910D02*
G01X-619585Y2000504D01*
G01X-619585Y2073910D02*
G01X-595201Y2073910D01*
G01X-584533Y2070354D01*
G01X-577675Y2063496D01*
G01X-574119Y2056384D01*
G01X-570563Y2045970D01*
G01X-570563Y2028444D01*
G01X-574119Y2018030D01*
G01X-577675Y2010918D01*
G01X-584533Y2004060D01*
G01X-595201Y2000504D01*
G01X-619585Y2000504D01*
G01X-496649Y2063496D02*
G01X-500205Y2070354D01*
G01X-510619Y2073910D01*
G01X-517477Y2073910D01*
G01X-528145Y2070354D01*
G01X-535003Y2059940D01*
G01X-538559Y2042414D01*
G01X-538559Y2024888D01*
G01X-535003Y2010918D01*
G01X-528145Y2004060D01*
G01X-517477Y2000504D01*
G01X-514175Y2000504D01*
G01X-503507Y2004060D01*
G01X-496649Y2010918D01*
G01X-493093Y2021586D01*
G01X-493093Y2024888D01*
G01X-496649Y2035556D01*
G01X-503507Y2042414D01*
G01X-514175Y2045970D01*
G01X-517477Y2045970D01*
G01X-528145Y2042414D01*
G01X-535003Y2035556D01*
G01X-538559Y2024888D01*
G01X-619585Y1819910D02*
G01X-619585Y1746504D01*
G01X-619585Y1819910D02*
G01X-595201Y1819910D01*
G01X-584533Y1816354D01*
G01X-577675Y1809496D01*
G01X-574119Y1802384D01*
G01X-570563Y1791970D01*
G01X-570563Y1774444D01*
G01X-574119Y1764030D01*
G01X-577675Y1756918D01*
G01X-584533Y1750060D01*
G01X-595201Y1746504D01*
G01X-619585Y1746504D01*
G01X-489537Y1819910D02*
G01X-524589Y1746504D01*
G01X-538559Y1819910D02*
G01X-489537Y1819910D01*
G01X-619585Y1565910D02*
G01X-619585Y1492504D01*
G01X-619585Y1565910D02*
G01X-595201Y1565910D01*
G01X-584533Y1562354D01*
G01X-577675Y1555496D01*
G01X-574119Y1548384D01*
G01X-570563Y1537970D01*
G01X-570563Y1520444D01*
G01X-574119Y1510030D01*
G01X-577675Y1502918D01*
G01X-584533Y1496060D01*
G01X-595201Y1492504D01*
G01X-619585Y1492504D01*
G01X-521033Y1565910D02*
G01X-531447Y1562354D01*
G01X-535003Y1555496D01*
G01X-535003Y1548384D01*
G01X-531447Y1541526D01*
G01X-524589Y1537970D01*
G01X-510619Y1534414D01*
G01X-500205Y1530858D01*
G01X-493093Y1524000D01*
G01X-489537Y1516888D01*
G01X-489537Y1506474D01*
G01X-493093Y1499616D01*
G01X-496649Y1496060D01*
G01X-507063Y1492504D01*
G01X-521033Y1492504D01*
G01X-531447Y1496060D01*
G01X-535003Y1499616D01*
G01X-538559Y1506474D01*
G01X-538559Y1516888D01*
G01X-535003Y1524000D01*
G01X-528145Y1530858D01*
G01X-517477Y1534414D01*
G01X-503507Y1537970D01*
G01X-496649Y1541526D01*
G01X-493093Y1548384D01*
G01X-493093Y1555496D01*
G01X-496649Y1562354D01*
G01X-507063Y1565910D01*
G01X-521033Y1565910D01*
G01X-619585Y1311910D02*
G01X-619585Y1238504D01*
G01X-619585Y1311910D02*
G01X-595201Y1311910D01*
G01X-584533Y1308354D01*
G01X-577675Y1301496D01*
G01X-574119Y1294384D01*
G01X-570563Y1283970D01*
G01X-570563Y1266444D01*
G01X-574119Y1256030D01*
G01X-577675Y1248918D01*
G01X-584533Y1242060D01*
G01X-595201Y1238504D01*
G01X-619585Y1238504D01*
G01X-493093Y1287526D02*
G01X-496649Y1276858D01*
G01X-503507Y1270000D01*
G01X-514175Y1266444D01*
G01X-517477Y1266444D01*
G01X-528145Y1270000D01*
G01X-535003Y1276858D01*
G01X-538559Y1287526D01*
G01X-538559Y1290828D01*
G01X-535003Y1301496D01*
G01X-528145Y1308354D01*
G01X-517477Y1311910D01*
G01X-514175Y1311910D01*
G01X-503507Y1308354D01*
G01X-496649Y1301496D01*
G01X-493093Y1287526D01*
G01X-493093Y1270000D01*
G01X-496649Y1252474D01*
G01X-503507Y1242060D01*
G01X-514175Y1238504D01*
G01X-521033Y1238504D01*
G01X-531447Y1242060D01*
G01X-535003Y1248918D01*
G01X424101Y3597910D02*
G01X424101Y3524504D01*
G01X424101Y3597910D02*
G01X455597Y3597910D01*
G01X466011Y3594354D01*
G01X469567Y3590798D01*
G01X473123Y3583940D01*
G01X473123Y3576828D01*
G01X469567Y3569970D01*
G01X466011Y3566414D01*
G01X455597Y3562858D01*
G01X424101Y3562858D01*
G01X448485Y3562858D02*
G01X473123Y3524504D01*
G01X554149Y3587496D02*
G01X547037Y3594354D01*
G01X536623Y3597910D01*
G01X522653Y3597910D01*
G01X512239Y3594354D01*
G01X505127Y3587496D01*
G01X505127Y3580384D01*
G01X508683Y3573526D01*
G01X512239Y3569970D01*
G01X519097Y3566414D01*
G01X540179Y3559556D01*
G01X547037Y3556000D01*
G01X550593Y3552444D01*
G01X554149Y3545586D01*
G01X554149Y3534918D01*
G01X547037Y3528060D01*
G01X536623Y3524504D01*
G01X522653Y3524504D01*
G01X512239Y3528060D01*
G01X505127Y3534918D01*
G01X610537Y3597910D02*
G01X610537Y3524504D01*
G01X586153Y3597910D02*
G01X635175Y3597910D01*
G01X540179Y3343910D02*
G01X505381Y3343910D01*
G01X501825Y3312414D01*
G01X505381Y3315970D01*
G01X515795Y3319526D01*
G01X526209Y3319526D01*
G01X536623Y3315970D01*
G01X543735Y3308858D01*
G01X547291Y3298444D01*
G01X547291Y3291586D01*
G01X543735Y3280918D01*
G01X536623Y3274060D01*
G01X526209Y3270504D01*
G01X515795Y3270504D01*
G01X505381Y3274060D01*
G01X501825Y3277616D01*
G01X498269Y3284474D01*
G01X579295Y3343910D02*
G01X607235Y3270504D01*
G01X635175Y3343910D02*
G01X607235Y3270504D01*
G01X526209Y3089910D02*
G01X498269Y3016504D01*
G01X526209Y3089910D02*
G01X554149Y3016504D01*
G01X508683Y3040888D02*
G01X543735Y3040888D01*
G01X593265Y3089910D02*
G01X631619Y3089910D01*
G01X610537Y3061970D01*
G01X621205Y3061970D01*
G01X628063Y3058414D01*
G01X631619Y3054858D01*
G01X635175Y3044444D01*
G01X635175Y3037586D01*
G01X631619Y3026918D01*
G01X624507Y3020060D01*
G01X614093Y3016504D01*
G01X603679Y3016504D01*
G01X593265Y3020060D01*
G01X589709Y3023616D01*
G01X586153Y3030474D01*
G01X526209Y2835910D02*
G01X498269Y2762504D01*
G01X526209Y2835910D02*
G01X554149Y2762504D01*
G01X508683Y2786888D02*
G01X543735Y2786888D01*
G01X589709Y2818384D02*
G01X589709Y2821940D01*
G01X593265Y2828798D01*
G01X596567Y2832354D01*
G01X603679Y2835910D01*
G01X617649Y2835910D01*
G01X624507Y2832354D01*
G01X628063Y2828798D01*
G01X631619Y2821940D01*
G01X631619Y2814828D01*
G01X628063Y2807970D01*
G01X621205Y2797556D01*
G01X586153Y2762504D01*
G01X635175Y2762504D01*
G01X557705Y2581910D02*
G01X529765Y2508504D01*
G01X557705Y2581910D02*
G01X585645Y2508504D01*
G01X540179Y2532888D02*
G01X575231Y2532888D01*
G01X617649Y2567940D02*
G01X624761Y2571496D01*
G01X635175Y2581910D01*
G01X635175Y2508504D01*
G01X526209Y2327910D02*
G01X498269Y2254504D01*
G01X526209Y2327910D02*
G01X554149Y2254504D01*
G01X508683Y2278888D02*
G01X543735Y2278888D01*
G01X607235Y2327910D02*
G01X596567Y2324354D01*
G01X589709Y2313940D01*
G01X586153Y2296414D01*
G01X586153Y2286000D01*
G01X589709Y2268474D01*
G01X596567Y2258060D01*
G01X607235Y2254504D01*
G01X614093Y2254504D01*
G01X624507Y2258060D01*
G01X631619Y2268474D01*
G01X635175Y2286000D01*
G01X635175Y2296414D01*
G01X631619Y2313940D01*
G01X624507Y2324354D01*
G01X614093Y2327910D01*
G01X607235Y2327910D01*
G01X455597Y2073910D02*
G01X455597Y2000504D01*
G01X455597Y2073910D02*
G01X479981Y2073910D01*
G01X490649Y2070354D01*
G01X497507Y2063496D01*
G01X501063Y2056384D01*
G01X504619Y2045970D01*
G01X504619Y2028444D01*
G01X501063Y2018030D01*
G01X497507Y2010918D01*
G01X490649Y2004060D01*
G01X479981Y2000504D01*
G01X455597Y2000504D01*
G01X536623Y2059940D02*
G01X543735Y2063496D01*
G01X554149Y2073910D01*
G01X554149Y2000504D01*
G01X628063Y2073910D02*
G01X593265Y2073910D01*
G01X589709Y2042414D01*
G01X593265Y2045970D01*
G01X603679Y2049526D01*
G01X614093Y2049526D01*
G01X624507Y2045970D01*
G01X631619Y2038858D01*
G01X635175Y2028444D01*
G01X635175Y2021586D01*
G01X631619Y2010918D01*
G01X624507Y2004060D01*
G01X614093Y2000504D01*
G01X603679Y2000504D01*
G01X593265Y2004060D01*
G01X589709Y2007616D01*
G01X586153Y2014474D01*
G01X452295Y1819910D02*
G01X452295Y1746504D01*
G01X452295Y1819910D02*
G01X476679Y1819910D01*
G01X487347Y1816354D01*
G01X494205Y1809496D01*
G01X497761Y1802384D01*
G01X501317Y1791970D01*
G01X501317Y1774444D01*
G01X497761Y1764030D01*
G01X494205Y1756918D01*
G01X487347Y1750060D01*
G01X476679Y1746504D01*
G01X452295Y1746504D01*
G01X533321Y1805940D02*
G01X540433Y1809496D01*
G01X550847Y1819910D01*
G01X550847Y1746504D01*
G01X617903Y1819910D02*
G01X582851Y1770888D01*
G01X635175Y1770888D01*
G01X617903Y1819910D02*
G01X617903Y1746504D01*
G01X459153Y1565910D02*
G01X459153Y1492504D01*
G01X459153Y1565910D02*
G01X483537Y1565910D01*
G01X494205Y1562354D01*
G01X501063Y1555496D01*
G01X504619Y1548384D01*
G01X508175Y1537970D01*
G01X508175Y1520444D01*
G01X504619Y1510030D01*
G01X501063Y1502918D01*
G01X494205Y1496060D01*
G01X483537Y1492504D01*
G01X459153Y1492504D01*
G01X540179Y1551940D02*
G01X547291Y1555496D01*
G01X557705Y1565910D01*
G01X557705Y1492504D01*
G01X631619Y1555496D02*
G01X628063Y1562354D01*
G01X617649Y1565910D01*
G01X610791Y1565910D01*
G01X600123Y1562354D01*
G01X593265Y1551940D01*
G01X589709Y1534414D01*
G01X589709Y1516888D01*
G01X593265Y1502918D01*
G01X600123Y1496060D01*
G01X610791Y1492504D01*
G01X614093Y1492504D01*
G01X624761Y1496060D01*
G01X631619Y1502918D01*
G01X635175Y1513586D01*
G01X635175Y1516888D01*
G01X631619Y1527556D01*
G01X624761Y1534414D01*
G01X614093Y1537970D01*
G01X610791Y1537970D01*
G01X600123Y1534414D01*
G01X593265Y1527556D01*
G01X589709Y1516888D01*
G01X455597Y1311910D02*
G01X455597Y1238504D01*
G01X455597Y1311910D02*
G01X479981Y1311910D01*
G01X490649Y1308354D01*
G01X497507Y1301496D01*
G01X501063Y1294384D01*
G01X504619Y1283970D01*
G01X504619Y1266444D01*
G01X501063Y1256030D01*
G01X497507Y1248918D01*
G01X490649Y1242060D01*
G01X479981Y1238504D01*
G01X455597Y1238504D01*
G01X536623Y1297940D02*
G01X543735Y1301496D01*
G01X554149Y1311910D01*
G01X554149Y1238504D01*
G01X607235Y1311910D02*
G01X596567Y1308354D01*
G01X589709Y1297940D01*
G01X586153Y1280414D01*
G01X586153Y1270000D01*
G01X589709Y1252474D01*
G01X596567Y1242060D01*
G01X607235Y1238504D01*
G01X614093Y1238504D01*
G01X624507Y1242060D01*
G01X631619Y1252474D01*
G01X635175Y1270000D01*
G01X635175Y1280414D01*
G01X631619Y1297940D01*
G01X624507Y1308354D01*
G01X614093Y1311910D01*
G01X607235Y1311910D01*
G01X-302085Y4296410D02*
G01X-302085Y4244086D01*
G01X-298529Y4233418D01*
G01X-291671Y4226560D01*
G01X-281003Y4223004D01*
G01X-274145Y4223004D01*
G01X-263731Y4226560D01*
G01X-256619Y4233418D01*
G01X-253063Y4244086D01*
G01X-253063Y4296410D01*
G01X-172037Y4285996D02*
G01X-179149Y4292854D01*
G01X-189563Y4296410D01*
G01X-203533Y4296410D01*
G01X-213947Y4292854D01*
G01X-221059Y4285996D01*
G01X-221059Y4278884D01*
G01X-217503Y4272026D01*
G01X-213947Y4268470D01*
G01X-207089Y4264914D01*
G01X-186007Y4258056D01*
G01X-179149Y4254500D01*
G01X-175593Y4250944D01*
G01X-172037Y4244086D01*
G01X-172037Y4233418D01*
G01X-179149Y4226560D01*
G01X-189563Y4223004D01*
G01X-203533Y4223004D01*
G01X-213947Y4226560D01*
G01X-221059Y4233418D01*
G01X-140033Y4296410D02*
G01X-140033Y4223004D01*
G01X-140033Y4296410D02*
G01X-108537Y4296410D01*
G01X-98123Y4292854D01*
G01X-94567Y4289298D01*
G01X-91011Y4282440D01*
G01X-91011Y4275328D01*
G01X-94567Y4268470D01*
G01X-98123Y4264914D01*
G01X-108537Y4261358D01*
G01X-140033Y4261358D02*
G01X-108537Y4261358D01*
G01X-98123Y4258056D01*
G01X-94567Y4254500D01*
G01X-91011Y4247388D01*
G01X-91011Y4236974D01*
G01X-94567Y4230116D01*
G01X-98123Y4226560D01*
G01X-108537Y4223004D01*
G01X-140033Y4223004D01*
G01X-567261Y3580384D02*
G01X-570563Y3587496D01*
G01X-577675Y3594354D01*
G01X-584533Y3597910D01*
G01X-598503Y3597910D01*
G01X-605615Y3594354D01*
G01X-612473Y3587496D01*
G01X-616029Y3580384D01*
G01X-619585Y3569970D01*
G01X-619585Y3552444D01*
G01X-616029Y3542030D01*
G01X-612473Y3534918D01*
G01X-605615Y3528060D01*
G01X-598503Y3524504D01*
G01X-584533Y3524504D01*
G01X-577675Y3528060D01*
G01X-570563Y3534918D01*
G01X-567261Y3542030D01*
G01X-567261Y3552444D01*
G01X-584533Y3552444D02*
G01X-567261Y3552444D01*
G01X-535257Y3597910D02*
G01X-535257Y3524504D01*
G01X-535257Y3597910D02*
G01X-486235Y3524504D01*
G01X-486235Y3597910D02*
G01X-486235Y3524504D01*
G01X-454231Y3597910D02*
G01X-454231Y3524504D01*
G01X-454231Y3597910D02*
G01X-429847Y3597910D01*
G01X-419179Y3594354D01*
G01X-412321Y3587496D01*
G01X-408765Y3580384D01*
G01X-405209Y3569970D01*
G01X-405209Y3552444D01*
G01X-408765Y3542030D01*
G01X-412321Y3534918D01*
G01X-419179Y3528060D01*
G01X-429847Y3524504D01*
G01X-454231Y3524504D01*
G01X-326850Y1946910D02*
G01X-326850Y1873504D01*
G01X-326850Y1946910D02*
G01X-295354Y1946910D01*
G01X-284940Y1943354D01*
G01X-281384Y1939798D01*
G01X-277828Y1932940D01*
G01X-277828Y1922526D01*
G01X-281384Y1915414D01*
G01X-284940Y1911858D01*
G01X-295354Y1908556D01*
G01X-326850Y1908556D01*
G01X-245824Y1946910D02*
G01X-245824Y1873504D01*
G01X-245824Y1946910D02*
G01X-214328Y1946910D01*
G01X-203914Y1943354D01*
G01X-200358Y1939798D01*
G01X-196802Y1932940D01*
G01X-196802Y1925828D01*
G01X-200358Y1918970D01*
G01X-203914Y1915414D01*
G01X-214328Y1911858D01*
G01X-245824Y1911858D01*
G01X-221440Y1911858D02*
G01X-196802Y1873504D01*
G01X-143716Y1946910D02*
G01X-150828Y1943354D01*
G01X-157686Y1936496D01*
G01X-161242Y1929384D01*
G01X-164798Y1918970D01*
G01X-164798Y1901444D01*
G01X-161242Y1891030D01*
G01X-157686Y1883918D01*
G01X-150828Y1877060D01*
G01X-143716Y1873504D01*
G01X-129746Y1873504D01*
G01X-122888Y1877060D01*
G01X-115776Y1883918D01*
G01X-112474Y1891030D01*
G01X-108918Y1901444D01*
G01X-108918Y1918970D01*
G01X-112474Y1929384D01*
G01X-115776Y1936496D01*
G01X-122888Y1943354D01*
G01X-129746Y1946910D01*
G01X-143716Y1946910D01*
G01X1318Y1946910D02*
G01X1318Y1873504D01*
G01X1318Y1946910D02*
G01X29258Y1873504D01*
G01X57198Y1946910D02*
G01X29258Y1873504D01*
G01X57198Y1946910D02*
G01X57198Y1873504D01*
G01X89202Y1946910D02*
G01X89202Y1873504D01*
G01X173530Y1929384D02*
G01X170228Y1936496D01*
G01X163116Y1943354D01*
G01X156258Y1946910D01*
G01X142288Y1946910D01*
G01X135176Y1943354D01*
G01X128318Y1936496D01*
G01X124762Y1929384D01*
G01X121206Y1918970D01*
G01X121206Y1901444D01*
G01X124762Y1891030D01*
G01X128318Y1883918D01*
G01X135176Y1877060D01*
G01X142288Y1873504D01*
G01X156258Y1873504D01*
G01X163116Y1877060D01*
G01X170228Y1883918D01*
G01X173530Y1891030D01*
G01X205534Y1946910D02*
G01X205534Y1873504D01*
G01X205534Y1946910D02*
G01X237030Y1946910D01*
G01X247444Y1943354D01*
G01X251000Y1939798D01*
G01X254556Y1932940D01*
G01X254556Y1925828D01*
G01X251000Y1918970D01*
G01X247444Y1915414D01*
G01X237030Y1911858D01*
G01X205534Y1911858D01*
G01X229918Y1911858D02*
G01X254556Y1873504D01*
G01X307642Y1946910D02*
G01X300530Y1943354D01*
G01X293672Y1936496D01*
G01X290116Y1929384D01*
G01X286560Y1918970D01*
G01X286560Y1901444D01*
G01X290116Y1891030D01*
G01X293672Y1883918D01*
G01X300530Y1877060D01*
G01X307642Y1873504D01*
G01X321612Y1873504D01*
G01X328470Y1877060D01*
G01X335582Y1883918D01*
G01X338884Y1891030D01*
G01X342440Y1901444D01*
G01X342440Y1918970D01*
G01X338884Y1929384D01*
G01X335582Y1936496D01*
G01X328470Y1943354D01*
G01X321612Y1946910D01*
G01X307642Y1946910D01*
G01X-149939Y3055620D02*
G01X-84915Y3080512D01*
G01X-149939Y3105150D02*
G01X-84915Y3080512D01*
G01X-149939Y3135376D02*
G01X-84915Y3135376D01*
G01X-149939Y3165602D02*
G01X-84915Y3165602D01*
G01X-149939Y3165602D02*
G01X-84915Y3208782D01*
G01X-149939Y3208782D02*
G01X-84915Y3208782D01*
G01X-122253Y3242056D02*
G01X-118951Y3239008D01*
G01X-115903Y3242056D01*
G01X-118951Y3245104D01*
G01X-122253Y3242056D01*
G01X-100409Y3242056D02*
G01X-97361Y3239008D01*
G01X-94313Y3242056D01*
G01X-97361Y3245104D01*
G01X-100409Y3242056D01*
G01X-140795Y3381756D02*
G01X-146891Y3378708D01*
G01X-149939Y3369310D01*
G01X-149939Y3363214D01*
G01X-146891Y3353816D01*
G01X-137493Y3347720D01*
G01X-122253Y3344672D01*
G01X-106759Y3344672D01*
G01X-94313Y3347720D01*
G01X-87963Y3353816D01*
G01X-84915Y3363214D01*
G01X-84915Y3366262D01*
G01X-87963Y3375406D01*
G01X-94313Y3381756D01*
G01X-103457Y3384804D01*
G01X-106759Y3384804D01*
G01X-115903Y3381756D01*
G01X-122253Y3375406D01*
G01X-125301Y3366262D01*
G01X-125301Y3363214D01*
G01X-122253Y3353816D01*
G01X-115903Y3347720D01*
G01X-106759Y3344672D01*
G01X-112855Y3415030D02*
G01X-112855Y3470656D01*
G01X-137493Y3500882D02*
G01X-140795Y3506978D01*
G01X-149939Y3516122D01*
G01X-84915Y3516122D01*
G01X-134445Y3549396D02*
G01X-137493Y3549396D01*
G01X-143843Y3552444D01*
G01X-146891Y3555492D01*
G01X-149939Y3561588D01*
G01X-149939Y3574034D01*
G01X-146891Y3580384D01*
G01X-143843Y3583432D01*
G01X-137493Y3586480D01*
G01X-131397Y3586480D01*
G01X-125301Y3583432D01*
G01X-115903Y3577082D01*
G01X-84915Y3546348D01*
G01X-84915Y3589528D01*
G01X-149939Y3619754D02*
G01X-84915Y3644392D01*
G01X-149939Y3669284D02*
G01X-84915Y3644392D01*
G01X-22939Y3061716D02*
G01X-22939Y3095752D01*
G01X1699Y3077210D01*
G01X1699Y3086608D01*
G01X4747Y3092704D01*
G01X8049Y3095752D01*
G01X17193Y3099054D01*
G01X23543Y3099054D01*
G01X32687Y3095752D01*
G01X39037Y3089656D01*
G01X42085Y3080512D01*
G01X42085Y3071114D01*
G01X39037Y3061716D01*
G01X35735Y3058668D01*
G01X29639Y3055620D01*
G01X-22939Y3129280D02*
G01X42085Y3153918D01*
G01X-22939Y3178810D02*
G01X42085Y3153918D01*
G01X-22939Y3215132D02*
G01X-22939Y3249168D01*
G01X1699Y3230626D01*
G01X1699Y3239770D01*
G01X4747Y3246120D01*
G01X8049Y3249168D01*
G01X17193Y3252216D01*
G01X23543Y3252216D01*
G01X32687Y3249168D01*
G01X39037Y3243072D01*
G01X42085Y3233674D01*
G01X42085Y3224276D01*
G01X39037Y3215132D01*
G01X35735Y3212084D01*
G01X29639Y3209036D01*
G01X-1349Y3351784D02*
G01X42085Y3351784D01*
G01X11097Y3351784D02*
G01X1699Y3360928D01*
G01X-1349Y3367024D01*
G01X-1349Y3376422D01*
G01X1699Y3382518D01*
G01X11097Y3385820D01*
G01X42085Y3385820D01*
G01X11097Y3385820D02*
G01X1699Y3394964D01*
G01X-1349Y3401314D01*
G01X-1349Y3410458D01*
G01X1699Y3416554D01*
G01X11097Y3419856D01*
G01X42085Y3419856D01*
G01X-1349Y3487166D02*
G01X42085Y3487166D01*
G01X8049Y3487166D02*
G01X1699Y3480816D01*
G01X-1349Y3474720D01*
G01X-1349Y3465322D01*
G01X1699Y3459226D01*
G01X8049Y3453130D01*
G01X17193Y3450082D01*
G01X23543Y3450082D01*
G01X32687Y3453130D01*
G01X39037Y3459226D01*
G01X42085Y3465322D01*
G01X42085Y3474720D01*
G01X39037Y3480816D01*
G01X32687Y3487166D01*
G01X-1349Y3517392D02*
G01X42085Y3551428D01*
G01X-1349Y3551428D02*
G01X42085Y3517392D01*
G01X4747Y3584702D02*
G01X8049Y3581654D01*
G01X11097Y3584702D01*
G01X8049Y3587750D01*
G01X4747Y3584702D01*
G01X26591Y3584702D02*
G01X29639Y3581654D01*
G01X32687Y3584702D01*
G01X29639Y3587750D01*
G01X26591Y3584702D01*
G01X-22939Y3724402D02*
G01X-22939Y3693414D01*
G01X4747Y3690366D01*
G01X1699Y3693414D01*
G01X-1349Y3702558D01*
G01X-1349Y3711956D01*
G01X1699Y3721354D01*
G01X8049Y3727450D01*
G01X17193Y3730498D01*
G01X23543Y3730498D01*
G01X32687Y3727450D01*
G01X39037Y3721354D01*
G01X42085Y3711956D01*
G01X42085Y3702558D01*
G01X39037Y3693414D01*
G01X35735Y3690366D01*
G01X29639Y3687318D01*
G01X-22939Y3779266D02*
G01X-19891Y3769868D01*
G01X-10493Y3763772D01*
G01X4747Y3760724D01*
G01X14145Y3760724D01*
G01X29639Y3763772D01*
G01X39037Y3769868D01*
G01X42085Y3779266D01*
G01X42085Y3785362D01*
G01X39037Y3794760D01*
G01X29639Y3800856D01*
G01X14145Y3803904D01*
G01X4747Y3803904D01*
G01X-10493Y3800856D01*
G01X-19891Y3794760D01*
G01X-22939Y3785362D01*
G01X-22939Y3779266D01*
G01X-1349Y3834130D02*
G01X42085Y3834130D01*
G01X11097Y3834130D02*
G01X1699Y3843274D01*
G01X-1349Y3849370D01*
G01X-1349Y3858768D01*
G01X1699Y3864864D01*
G01X11097Y3868166D01*
G01X42085Y3868166D01*
G01X11097Y3868166D02*
G01X1699Y3877310D01*
G01X-1349Y3883660D01*
G01X-1349Y3892804D01*
G01X1699Y3898900D01*
G01X11097Y3902202D01*
G01X42085Y3902202D01*
G01X-22939Y3957066D02*
G01X42085Y3932428D01*
G01X-22939Y3957066D02*
G01X42085Y3981958D01*
G01X20241Y3941572D02*
G01X20241Y3972560D01*
G01X104061Y3092704D02*
G01X104061Y3061716D01*
G01X131747Y3058668D01*
G01X128699Y3061716D01*
G01X125651Y3071114D01*
G01X125651Y3080512D01*
G01X128699Y3089656D01*
G01X135049Y3095752D01*
G01X144193Y3099054D01*
G01X150543Y3099054D01*
G01X159687Y3095752D01*
G01X166037Y3089656D01*
G01X169085Y3080512D01*
G01X169085Y3071114D01*
G01X166037Y3061716D01*
G01X162735Y3058668D01*
G01X156639Y3055620D01*
G01X104061Y3129280D02*
G01X169085Y3153918D01*
G01X104061Y3178810D02*
G01X169085Y3153918D01*
G01X125651Y3278378D02*
G01X169085Y3278378D01*
G01X138097Y3278378D02*
G01X128699Y3287522D01*
G01X125651Y3293618D01*
G01X125651Y3303016D01*
G01X128699Y3309112D01*
G01X138097Y3312414D01*
G01X169085Y3312414D01*
G01X138097Y3312414D02*
G01X128699Y3321558D01*
G01X125651Y3327908D01*
G01X125651Y3337052D01*
G01X128699Y3343148D01*
G01X138097Y3346450D01*
G01X169085Y3346450D01*
G01X125651Y3413760D02*
G01X169085Y3413760D01*
G01X135049Y3413760D02*
G01X128699Y3407410D01*
G01X125651Y3401314D01*
G01X125651Y3391916D01*
G01X128699Y3385820D01*
G01X135049Y3379724D01*
G01X144193Y3376676D01*
G01X150543Y3376676D01*
G01X159687Y3379724D01*
G01X166037Y3385820D01*
G01X169085Y3391916D01*
G01X169085Y3401314D01*
G01X166037Y3407410D01*
G01X159687Y3413760D01*
G01X125651Y3443986D02*
G01X169085Y3478022D01*
G01X125651Y3478022D02*
G01X169085Y3443986D01*
G01X131747Y3511296D02*
G01X135049Y3508248D01*
G01X138097Y3511296D01*
G01X135049Y3514344D01*
G01X131747Y3511296D01*
G01X153591Y3511296D02*
G01X156639Y3508248D01*
G01X159687Y3511296D01*
G01X156639Y3514344D01*
G01X153591Y3511296D01*
G01X116507Y3613912D02*
G01X113205Y3620008D01*
G01X104061Y3629152D01*
G01X169085Y3629152D01*
G01X104061Y3677920D02*
G01X107109Y3668522D01*
G01X116507Y3662426D01*
G01X131747Y3659378D01*
G01X141145Y3659378D01*
G01X156639Y3662426D01*
G01X166037Y3668522D01*
G01X169085Y3677920D01*
G01X169085Y3684016D01*
G01X166037Y3693414D01*
G01X156639Y3699510D01*
G01X141145Y3702558D01*
G01X131747Y3702558D01*
G01X116507Y3699510D01*
G01X107109Y3693414D01*
G01X104061Y3684016D01*
G01X104061Y3677920D01*
G01X104061Y3751326D02*
G01X107109Y3741928D01*
G01X116507Y3735832D01*
G01X131747Y3732784D01*
G01X141145Y3732784D01*
G01X156639Y3735832D01*
G01X166037Y3741928D01*
G01X169085Y3751326D01*
G01X169085Y3757422D01*
G01X166037Y3766820D01*
G01X156639Y3772916D01*
G01X141145Y3775964D01*
G01X131747Y3775964D01*
G01X116507Y3772916D01*
G01X107109Y3766820D01*
G01X104061Y3757422D01*
G01X104061Y3751326D01*
G01X104061Y3824732D02*
G01X107109Y3815334D01*
G01X116507Y3809238D01*
G01X131747Y3806190D01*
G01X141145Y3806190D01*
G01X156639Y3809238D01*
G01X166037Y3815334D01*
G01X169085Y3824732D01*
G01X169085Y3830828D01*
G01X166037Y3840226D01*
G01X156639Y3846322D01*
G01X141145Y3849370D01*
G01X131747Y3849370D01*
G01X116507Y3846322D01*
G01X107109Y3840226D01*
G01X104061Y3830828D01*
G01X104061Y3824732D01*
G01X125651Y3879596D02*
G01X169085Y3879596D01*
G01X138097Y3879596D02*
G01X128699Y3888740D01*
G01X125651Y3894836D01*
G01X125651Y3904234D01*
G01X128699Y3910330D01*
G01X138097Y3913632D01*
G01X169085Y3913632D01*
G01X138097Y3913632D02*
G01X128699Y3922776D01*
G01X125651Y3929126D01*
G01X125651Y3938270D01*
G01X128699Y3944366D01*
G01X138097Y3947668D01*
G01X169085Y3947668D01*
G01X104061Y4002532D02*
G01X169085Y3977894D01*
G01X104061Y4002532D02*
G01X169085Y4027424D01*
G01X147241Y3987038D02*
G01X147241Y4018026D01*
G54D14*
G01X-4809658Y-1462786D02*
G01X-4929800Y-1508506D01*
G01X-4809658Y-1554226D02*
G01X-4929800Y-1508506D01*
G01X-4826930Y-1294511D02*
G01X-4815500Y-1283081D01*
G01X-4809658Y-1266063D01*
G01X-4809658Y-1243203D01*
G01X-4815500Y-1225931D01*
G01X-4826930Y-1214501D01*
G01X-4838360Y-1214501D01*
G01X-4849790Y-1220343D01*
G01X-4855378Y-1225931D01*
G01X-4861220Y-1237361D01*
G01X-4872650Y-1271651D01*
G01X-4878238Y-1283081D01*
G01X-4884080Y-1288923D01*
G01X-4895510Y-1294511D01*
G01X-4912528Y-1294511D01*
G01X-4923958Y-1283081D01*
G01X-4929800Y-1266063D01*
G01X-4929800Y-1243203D01*
G01X-4923958Y-1225931D01*
G01X-4912528Y-1214501D01*
G01X-4838360Y-1805432D02*
G01X-4826930Y-1799590D01*
G01X-4815500Y-1788160D01*
G01X-4809658Y-1776730D01*
G01X-4809658Y-1753870D01*
G01X-4815500Y-1742440D01*
G01X-4826930Y-1731010D01*
G01X-4838360Y-1725422D01*
G01X-4855378Y-1719580D01*
G01X-4884080Y-1719580D01*
G01X-4901098Y-1725422D01*
G01X-4912528Y-1731010D01*
G01X-4923958Y-1742440D01*
G01X-4929800Y-1753870D01*
G01X-4929800Y-1776730D01*
G01X-4923958Y-1788160D01*
G01X-4912528Y-1799590D01*
G01X-4901098Y-1805432D01*
G01X-4884080Y-1805432D01*
G01X-4884080Y-1776730D02*
G01X-4884080Y-1805432D01*
G01X-4100363Y-2455926D02*
G01X-4100363Y-2576068D01*
G01X-4100363Y-2455926D02*
G01X-4048801Y-2455926D01*
G01X-4031783Y-2461768D01*
G01X-4025941Y-2467356D01*
G01X-4020353Y-2478786D01*
G01X-4020353Y-2490216D01*
G01X-4025941Y-2501646D01*
G01X-4031783Y-2507488D01*
G01X-4048801Y-2513076D01*
G01X-4100363Y-2513076D02*
G01X-4048801Y-2513076D01*
G01X-4031783Y-2518918D01*
G01X-4025941Y-2524506D01*
G01X-4020353Y-2535936D01*
G01X-4020353Y-2553208D01*
G01X-4025941Y-2564638D01*
G01X-4031783Y-2570226D01*
G01X-4048801Y-2576068D01*
G01X-4100363Y-2576068D01*
G01X-3972601Y-2455926D02*
G01X-3972601Y-2541778D01*
G01X-3966759Y-2558796D01*
G01X-3955329Y-2570226D01*
G01X-3938311Y-2576068D01*
G01X-3926881Y-2576068D01*
G01X-3909609Y-2570226D01*
G01X-3898179Y-2558796D01*
G01X-3892591Y-2541778D01*
G01X-3892591Y-2455926D01*
G01X-3804707Y-2455926D02*
G01X-3804707Y-2576068D01*
G01X-3844839Y-2455926D02*
G01X-3764829Y-2455926D01*
G01X-3676945Y-2455926D02*
G01X-3676945Y-2576068D01*
G01X-3717077Y-2455926D02*
G01X-3637067Y-2455926D01*
G01X-3555025Y-2455926D02*
G01X-3566455Y-2461768D01*
G01X-3577885Y-2473198D01*
G01X-3583473Y-2484628D01*
G01X-3589315Y-2501646D01*
G01X-3589315Y-2530348D01*
G01X-3583473Y-2547366D01*
G01X-3577885Y-2558796D01*
G01X-3566455Y-2570226D01*
G01X-3555025Y-2576068D01*
G01X-3532165Y-2576068D01*
G01X-3520735Y-2570226D01*
G01X-3509305Y-2558796D01*
G01X-3503463Y-2547366D01*
G01X-3497875Y-2530348D01*
G01X-3497875Y-2501646D01*
G01X-3503463Y-2484628D01*
G01X-3509305Y-2473198D01*
G01X-3520735Y-2461768D01*
G01X-3532165Y-2455926D01*
G01X-3555025Y-2455926D01*
G01X-3450123Y-2455926D02*
G01X-3450123Y-2576068D01*
G01X-3450123Y-2455926D02*
G01X-3370113Y-2576068D01*
G01X-3370113Y-2455926D02*
G01X-3370113Y-2576068D01*
G01X-3786711Y2375878D02*
G01X-3666569Y2421598D01*
G01X-3786711Y2467318D02*
G01X-3666569Y2421598D01*
G01X-3769439Y2207603D02*
G01X-3780869Y2196173D01*
G01X-3786711Y2179155D01*
G01X-3786711Y2156295D01*
G01X-3780869Y2139023D01*
G01X-3769439Y2127593D01*
G01X-3758009Y2127593D01*
G01X-3746579Y2133435D01*
G01X-3740991Y2139023D01*
G01X-3735149Y2150453D01*
G01X-3723719Y2184743D01*
G01X-3718131Y2196173D01*
G01X-3712289Y2202015D01*
G01X-3700859Y2207603D01*
G01X-3683841Y2207603D01*
G01X-3672411Y2196173D01*
G01X-3666569Y2179155D01*
G01X-3666569Y2156295D01*
G01X-3672411Y2139023D01*
G01X-3683841Y2127593D01*
G01X-3758009Y2718524D02*
G01X-3769439Y2712682D01*
G01X-3780869Y2701252D01*
G01X-3786711Y2689822D01*
G01X-3786711Y2666962D01*
G01X-3780869Y2655532D01*
G01X-3769439Y2644102D01*
G01X-3758009Y2638514D01*
G01X-3740991Y2632672D01*
G01X-3712289Y2632672D01*
G01X-3695271Y2638514D01*
G01X-3683841Y2644102D01*
G01X-3672411Y2655532D01*
G01X-3666569Y2666962D01*
G01X-3666569Y2689822D01*
G01X-3672411Y2701252D01*
G01X-3683841Y2712682D01*
G01X-3695271Y2718524D01*
G01X-3712289Y2718524D01*
G01X-3712289Y2689822D02*
G01X-3712289Y2718524D01*
G01X-4948761Y2370417D02*
G01X-4795345Y2370417D01*
G01X-4948761Y2370417D02*
G01X-4948761Y2436203D01*
G01X-4941395Y2458047D01*
G01X-4934029Y2465413D01*
G01X-4919551Y2472779D01*
G01X-4904819Y2472779D01*
G01X-4890341Y2465413D01*
G01X-4882975Y2458047D01*
G01X-4875609Y2436203D01*
G01X-4875609Y2370417D01*
G01X-4875609Y2421471D02*
G01X-4795345Y2472779D01*
G01X-4165806Y3369018D02*
G01X-4165806Y3489160D01*
G01X-4165806Y3369018D02*
G01X-4217368Y3369018D01*
G01X-4234386Y3374860D01*
G01X-4240228Y3380448D01*
G01X-4245816Y3391878D01*
G01X-4245816Y3409150D01*
G01X-4240228Y3420580D01*
G01X-4234386Y3426168D01*
G01X-4217368Y3432010D01*
G01X-4165806Y3432010D01*
G01X-4322270Y3409150D02*
G01X-4310840Y3414738D01*
G01X-4299410Y3426168D01*
G01X-4293568Y3443440D01*
G01X-4293568Y3454870D01*
G01X-4299410Y3471888D01*
G01X-4310840Y3483318D01*
G01X-4322270Y3489160D01*
G01X-4339288Y3489160D01*
G01X-4350718Y3483318D01*
G01X-4362148Y3471888D01*
G01X-4367990Y3454870D01*
G01X-4367990Y3443440D01*
G01X-4362148Y3426168D01*
G01X-4350718Y3414738D01*
G01X-4339288Y3409150D01*
G01X-4322270Y3409150D01*
G01X-4433014Y3369018D02*
G01X-4433014Y3466300D01*
G01X-4438602Y3483318D01*
G01X-4450032Y3489160D01*
G01X-4461462Y3489160D01*
G01X-4415742Y3409150D02*
G01X-4455874Y3409150D01*
G01X-4509214Y3443440D02*
G01X-4577794Y3443440D01*
G01X-4577794Y3432010D01*
G01X-4572206Y3420580D01*
G01X-4566364Y3414738D01*
G01X-4554934Y3409150D01*
G01X-4537916Y3409150D01*
G01X-4526486Y3414738D01*
G01X-4515056Y3426168D01*
G01X-4509214Y3443440D01*
G01X-4509214Y3454870D01*
G01X-4515056Y3471888D01*
G01X-4526486Y3483318D01*
G01X-4537916Y3489160D01*
G01X-4554934Y3489160D01*
G01X-4566364Y3483318D01*
G01X-4577794Y3471888D01*
G01X-4625546Y3409150D02*
G01X-4625546Y3489160D01*
G01X-4625546Y3432010D02*
G01X-4642818Y3414738D01*
G01X-4654248Y3409150D01*
G01X-4671266Y3409150D01*
G01X-4682696Y3414738D01*
G01X-4688538Y3432010D01*
G01X-4688538Y3489160D01*
G01X-4753562Y3369018D02*
G01X-4753562Y3466300D01*
G01X-4759150Y3483318D01*
G01X-4770580Y3489160D01*
G01X-4782010Y3489160D01*
G01X-4736290Y3409150D02*
G01X-4776422Y3409150D01*
G01X-4829762Y3369018D02*
G01X-4835604Y3374860D01*
G01X-4841192Y3369018D01*
G01X-4835604Y3363430D01*
G01X-4829762Y3369018D01*
G01X-4835604Y3409150D02*
G01X-4835604Y3489160D01*
G01X-4917646Y3409150D02*
G01X-4906216Y3414738D01*
G01X-4894786Y3426168D01*
G01X-4888944Y3443440D01*
G01X-4888944Y3454870D01*
G01X-4894786Y3471888D01*
G01X-4906216Y3483318D01*
G01X-4917646Y3489160D01*
G01X-4934664Y3489160D01*
G01X-4946094Y3483318D01*
G01X-4957524Y3471888D01*
G01X-4963366Y3454870D01*
G01X-4963366Y3443440D01*
G01X-4957524Y3426168D01*
G01X-4946094Y3414738D01*
G01X-4934664Y3409150D01*
G01X-4917646Y3409150D01*
G01X-5011118Y3409150D02*
G01X-5011118Y3489160D01*
G01X-5011118Y3432010D02*
G01X-5028390Y3414738D01*
G01X-5039820Y3409150D01*
G01X-5056838Y3409150D01*
G01X-5068268Y3414738D01*
G01X-5074110Y3432010D01*
G01X-5074110Y3489160D01*
G01X-5074110Y3432010D02*
G01X-5091128Y3414738D01*
G01X-5102558Y3409150D01*
G01X-5119830Y3409150D01*
G01X-5131260Y3414738D01*
G01X-5136848Y3432010D01*
G01X-5136848Y3489160D01*
G01X-5184600Y3443440D02*
G01X-5253180Y3443440D01*
G01X-5253180Y3432010D01*
G01X-5247592Y3420580D01*
G01X-5241750Y3414738D01*
G01X-5230320Y3409150D01*
G01X-5213302Y3409150D01*
G01X-5201872Y3414738D01*
G01X-5190442Y3426168D01*
G01X-5184600Y3443440D01*
G01X-5184600Y3454870D01*
G01X-5190442Y3471888D01*
G01X-5201872Y3483318D01*
G01X-5213302Y3489160D01*
G01X-5230320Y3489160D01*
G01X-5241750Y3483318D01*
G01X-5253180Y3471888D01*
G01X-5318204Y3369018D02*
G01X-5318204Y3466300D01*
G01X-5323792Y3483318D01*
G01X-5335222Y3489160D01*
G01X-5346652Y3489160D01*
G01X-5300932Y3409150D02*
G01X-5341064Y3409150D01*
G01X-5394404Y3443440D02*
G01X-5462984Y3443440D01*
G01X-5462984Y3432010D01*
G01X-5457396Y3420580D01*
G01X-5451554Y3414738D01*
G01X-5440124Y3409150D01*
G01X-5423106Y3409150D01*
G01X-5411676Y3414738D01*
G01X-5400246Y3426168D01*
G01X-5394404Y3443440D01*
G01X-5394404Y3454870D01*
G01X-5400246Y3471888D01*
G01X-5411676Y3483318D01*
G01X-5423106Y3489160D01*
G01X-5440124Y3489160D01*
G01X-5451554Y3483318D01*
G01X-5462984Y3471888D01*
G01X-5510736Y3409150D02*
G01X-5510736Y3489160D01*
G01X-5510736Y3443440D02*
G01X-5516578Y3426168D01*
G01X-5528008Y3414738D01*
G01X-5539438Y3409150D01*
G01X-5556456Y3409150D01*
G01X5891705Y2788920D02*
G01X5828713Y2788920D01*
G01X5863003Y2834640D01*
G01X5845985Y2834640D01*
G01X5834555Y2840482D01*
G01X5828713Y2846070D01*
G01X5823125Y2863342D01*
G01X5823125Y2874772D01*
G01X5828713Y2891790D01*
G01X5840143Y2903220D01*
G01X5857415Y2909062D01*
G01X5874433Y2909062D01*
G01X5891705Y2903220D01*
G01X5897293Y2897632D01*
G01X5903135Y2886202D01*
G01X5775373Y2788920D02*
G01X5775373Y2909062D01*
G01X5775373Y2788920D02*
G01X5735241Y2788920D01*
G01X5718223Y2794762D01*
G01X5706793Y2806192D01*
G01X5700951Y2817622D01*
G01X5695363Y2834640D01*
G01X5695363Y2863342D01*
G01X5700951Y2880360D01*
G01X5706793Y2891790D01*
G01X5718223Y2903220D01*
G01X5735241Y2909062D01*
G01X5775373Y2909062D01*
G01X5647611Y2857500D02*
G01X5544741Y2857500D01*
G01X5439839Y2788920D02*
G01X5439839Y2880360D01*
G01X5445427Y2897632D01*
G01X5451269Y2903220D01*
G01X5462699Y2909062D01*
G01X5474129Y2909062D01*
G01X5485559Y2903220D01*
G01X5491147Y2897632D01*
G01X5496989Y2880360D01*
G01X5496989Y2868930D01*
G01X5357797Y2788920D02*
G01X5369227Y2794762D01*
G01X5380657Y2806192D01*
G01X5386245Y2817622D01*
G01X5392087Y2834640D01*
G01X5392087Y2863342D01*
G01X5386245Y2880360D01*
G01X5380657Y2891790D01*
G01X5369227Y2903220D01*
G01X5357797Y2909062D01*
G01X5334937Y2909062D01*
G01X5323507Y2903220D01*
G01X5312077Y2891790D01*
G01X5306235Y2880360D01*
G01X5300647Y2863342D01*
G01X5300647Y2834640D01*
G01X5306235Y2817622D01*
G01X5312077Y2806192D01*
G01X5323507Y2794762D01*
G01X5334937Y2788920D01*
G01X5357797Y2788920D01*
G01X5252895Y2788920D02*
G01X5207175Y2846070D01*
G01X5207175Y2909062D01*
G01X5161455Y2788920D02*
G01X5207175Y2846070D01*
G01X4816015Y3423920D02*
G01X4770295Y3544062D01*
G01X4724575Y3423920D02*
G01X4770295Y3544062D01*
G01X4473369Y3452622D02*
G01X4479211Y3441192D01*
G01X4490641Y3429762D01*
G01X4502071Y3423920D01*
G01X4524931Y3423920D01*
G01X4536361Y3429762D01*
G01X4547791Y3441192D01*
G01X4553379Y3452622D01*
G01X4559221Y3469640D01*
G01X4559221Y3498342D01*
G01X4553379Y3515360D01*
G01X4547791Y3526790D01*
G01X4536361Y3538220D01*
G01X4524931Y3544062D01*
G01X4502071Y3544062D01*
G01X4490641Y3538220D01*
G01X4479211Y3526790D01*
G01X4473369Y3515360D01*
G01X4473369Y3498342D01*
G01X4502071Y3498342D02*
G01X4473369Y3498342D01*
G01X5064300Y3423920D02*
G01X4984290Y3544062D01*
G01X4984290Y3423920D02*
G01X5064300Y3544062D01*
G01X4562015Y1137920D02*
G01X4516295Y1195070D01*
G01X4516295Y1258062D01*
G01X4470575Y1137920D02*
G01X4516295Y1195070D01*
G01X4730290Y1137920D02*
G01X4810300Y1258062D01*
G01X4810300Y1137920D02*
G01X4730290Y1137920D01*
G01X4810300Y1258062D02*
G01X4730290Y1258062D01*
G01X4302300Y2534920D02*
G01X4222290Y2655062D01*
G01X4222290Y2534920D02*
G01X4302300Y2655062D01*
G01X5070015Y1772920D02*
G01X5024295Y1830070D01*
G01X5024295Y1893062D01*
G01X4978575Y1772920D02*
G01X5024295Y1830070D01*
G01X4730290Y2280920D02*
G01X4810300Y2401062D01*
G01X4810300Y2280920D02*
G01X4730290Y2280920D01*
G01X4810300Y2401062D02*
G01X4730290Y2401062D01*
G36*
G01X-19799Y-1245581D02*
G01X-14603Y-1245754D01*
G01X-10836Y-1245625D01*
G01X-9234Y-1245235D01*
G01X-8542Y-1243849D01*
G01X-8196Y-1242464D01*
G01X-7676Y-1240906D01*
G01X-7156Y-1238827D01*
G01X-6117Y-1235364D01*
G01X-5771Y-1233805D01*
G01X-5251Y-1232246D01*
G01X-4732Y-1230341D01*
G01X-4386Y-1228956D01*
G01X-3000Y-1224107D01*
G01X-2307Y-1221336D01*
G01X-1788Y-1219604D01*
G01X-402Y-1214755D01*
G01X117Y-1212677D01*
G01X1156Y-1209213D01*
G01X1503Y-1207828D01*
G01X2196Y-1205403D01*
G01X2888Y-1202632D01*
G01X3408Y-1201074D01*
G01X3927Y-1198996D01*
G01X4966Y-1195532D01*
G01X5313Y-1193973D01*
G01X7391Y-1186699D01*
G01X8084Y-1183929D01*
G01X8603Y-1182370D01*
G01X9123Y-1180292D01*
G01X9642Y-1178560D01*
G01X9989Y-1177001D01*
G01X10162Y-1176309D01*
G01X10681Y-1175962D01*
G01X11201Y-1176006D01*
G01X11374Y-1176482D01*
G01X12067Y-1178906D01*
G01X12413Y-1180292D01*
G01X12933Y-1182024D01*
G01X13279Y-1183582D01*
G01X14664Y-1188431D01*
G01X15184Y-1190163D01*
G01X15704Y-1192414D01*
G01X16223Y-1193973D01*
G01X16569Y-1195186D01*
G01X17262Y-1197956D01*
G01X18994Y-1204018D01*
G01X19514Y-1205749D01*
G01X19860Y-1207481D01*
G01X20379Y-1209040D01*
G01X20899Y-1211118D01*
G01X21938Y-1214582D01*
G01X22284Y-1216141D01*
G01X23670Y-1220989D01*
G01X24363Y-1223761D01*
G01X24882Y-1225319D01*
G01X25402Y-1227397D01*
G01X26441Y-1230861D01*
G01X26787Y-1232419D01*
G01X28173Y-1237269D01*
G01X28866Y-1240039D01*
G01X29385Y-1241598D01*
G01X29904Y-1243503D01*
G01X30424Y-1244889D01*
G01X31636Y-1245581D01*
G01X36486Y-1245754D01*
G01X39560Y-1245625D01*
G01X40815Y-1245235D01*
G01X41508Y-1243849D01*
G01X42027Y-1241944D01*
G01X42374Y-1240386D01*
G01X43759Y-1235537D01*
G01X44452Y-1232766D01*
G01X44971Y-1231207D01*
G01X45491Y-1229129D01*
G01X46011Y-1227397D01*
G01X46357Y-1226012D01*
G01X47742Y-1221163D01*
G01X48089Y-1219777D01*
G01X48608Y-1218046D01*
G01X48954Y-1216487D01*
G01X49647Y-1213716D01*
G01X50167Y-1212157D01*
G01X51726Y-1206442D01*
G01X52072Y-1205057D01*
G01X53457Y-1200208D01*
G01X54150Y-1197437D01*
G01X54669Y-1195878D01*
G01X55189Y-1193800D01*
G01X55536Y-1192241D01*
G01X56055Y-1190683D01*
G01X57614Y-1184968D01*
G01X57960Y-1183582D01*
G01X59346Y-1178733D01*
G01X60038Y-1175962D01*
G01X60558Y-1174231D01*
G01X61251Y-1171806D01*
G01X61770Y-1169728D01*
G01X62809Y-1166264D01*
G01X63156Y-1164879D01*
G01X62982Y-1164013D01*
G01X57787Y-1163666D01*
G01X54063Y-1163839D01*
G01X52591Y-1164359D01*
G01X52072Y-1165918D01*
G01X51726Y-1167303D01*
G01X51379Y-1169035D01*
G01X50859Y-1170940D01*
G01X47049Y-1186180D01*
G01X46876Y-1187392D01*
G01X46530Y-1188778D01*
G01X46011Y-1190683D01*
G01X45491Y-1192934D01*
G01X44971Y-1194839D01*
G01X44279Y-1197610D01*
G01X43932Y-1199169D01*
G01X42547Y-1204711D01*
G01X42201Y-1206269D01*
G01X39776Y-1215967D01*
G01X39083Y-1219084D01*
G01X37698Y-1224626D01*
G01X36659Y-1229302D01*
G01X36486Y-1230688D01*
G01X36139Y-1231727D01*
G01X35619Y-1232073D01*
G01X35273Y-1231034D01*
G01X35100Y-1229649D01*
G01X34407Y-1225839D01*
G01X33714Y-1222375D01*
G01X33022Y-1219258D01*
G01X32329Y-1216487D01*
G01X31636Y-1213369D01*
G01X30944Y-1210599D01*
G01X30424Y-1209040D01*
G01X29904Y-1206962D01*
G01X28866Y-1203498D01*
G01X28519Y-1201939D01*
G01X25748Y-1192241D01*
G01X25056Y-1189471D01*
G01X24536Y-1187912D01*
G01X24016Y-1186007D01*
G01X23497Y-1184448D01*
G01X23151Y-1183063D01*
G01X20379Y-1173364D01*
G01X20033Y-1171979D01*
G01X18474Y-1166784D01*
G01X18128Y-1165225D01*
G01X17609Y-1164186D01*
G01X15790Y-1163796D01*
G01X11028Y-1163666D01*
G01X4793Y-1163666D01*
G01X4447Y-1164532D01*
G01X3927Y-1165918D01*
G01X3234Y-1168689D01*
G01X2715Y-1170074D01*
G01X2196Y-1171806D01*
G01X1156Y-1175962D01*
G01X637Y-1177521D01*
G01X117Y-1179426D01*
G01X-229Y-1180811D01*
G01X-749Y-1182543D01*
G01X-1441Y-1184968D01*
G01X-1961Y-1186699D01*
G01X-2654Y-1189471D01*
G01X-3173Y-1191029D01*
G01X-3693Y-1192934D01*
G01X-4039Y-1194319D01*
G01X-4559Y-1195878D01*
G01X-5078Y-1197783D01*
G01X-5424Y-1199169D01*
G01X-5944Y-1200901D01*
G01X-8022Y-1208174D01*
G01X-8542Y-1210252D01*
G01X-9581Y-1213716D01*
G01X-9927Y-1215101D01*
G01X-10447Y-1216833D01*
G01X-11139Y-1219258D01*
G01X-12179Y-1223414D01*
G01X-12698Y-1225666D01*
G01X-13044Y-1227224D01*
G01X-13737Y-1229995D01*
G01X-14084Y-1231207D01*
G01X-14776Y-1232073D01*
G01X-15166Y-1231900D01*
G01X-15296Y-1231034D01*
G01X-15469Y-1229302D01*
G01X-15816Y-1227917D01*
G01X-16162Y-1225839D01*
G01X-16508Y-1224107D01*
G01X-17374Y-1220643D01*
G01X-17721Y-1218738D01*
G01X-18759Y-1214582D01*
G01X-19799Y-1209906D01*
G01X-20491Y-1207135D01*
G01X-21531Y-1202459D01*
G01X-21877Y-1201074D01*
G01X-22050Y-1199861D01*
G01X-22569Y-1198129D01*
G01X-23089Y-1195705D01*
G01X-23436Y-1193973D01*
G01X-24821Y-1188431D01*
G01X-26206Y-1182197D01*
G01X-26899Y-1179426D01*
G01X-27592Y-1175962D01*
G01X-27938Y-1174577D01*
G01X-28458Y-1172672D01*
G01X-28804Y-1170940D01*
G01X-29151Y-1169728D01*
G01X-29497Y-1168342D01*
G01X-30189Y-1165225D01*
G01X-30363Y-1164489D01*
G01X-30882Y-1164013D01*
G01X-36424Y-1163666D01*
G01X-40104Y-1163839D01*
G01X-41446Y-1164359D01*
G01X-41446Y-1165571D01*
G01X-40927Y-1167130D01*
G01X-40407Y-1169208D01*
G01X-40061Y-1170767D01*
G01X-39368Y-1173191D01*
G01X-38676Y-1175962D01*
G01X-38156Y-1177521D01*
G01X-37636Y-1179599D01*
G01X-37290Y-1181158D01*
G01X-36771Y-1182889D01*
G01X-36251Y-1184968D01*
G01X-35212Y-1188778D01*
G01X-34173Y-1192934D01*
G01X-33480Y-1195359D01*
G01X-32787Y-1198129D01*
G01X-32268Y-1199688D01*
G01X-31748Y-1201939D01*
G01X-31229Y-1203844D01*
G01X-30882Y-1205230D01*
G01X-30189Y-1207654D01*
G01X-29497Y-1210426D01*
G01X-28804Y-1212850D01*
G01X-28458Y-1214236D01*
G01X-27938Y-1215967D01*
G01X-27592Y-1217526D01*
G01X-26899Y-1220297D01*
G01X-26379Y-1222029D01*
G01X-25860Y-1224280D01*
G01X-25341Y-1226012D01*
G01X-24994Y-1227397D01*
G01X-24301Y-1229822D01*
G01X-23609Y-1232593D01*
G01X-22916Y-1235017D01*
G01X-22569Y-1236403D01*
G01X-22050Y-1238308D01*
G01X-21704Y-1240039D01*
G01X-21184Y-1241771D01*
G01X-20491Y-1244196D01*
G01X-19799Y-1245581D01*
G37*
G36*
G01X-82317Y-1246967D02*
G01X-79373Y-1247140D01*
G01X-76083Y-1246967D01*
G01X-73312Y-1246621D01*
G01X-71580Y-1246274D01*
G01X-69329Y-1245754D01*
G01X-67251Y-1245235D01*
G01X-65692Y-1244716D01*
G01X-62574Y-1243330D01*
G01X-61189Y-1242464D01*
G01X-59457Y-1241425D01*
G01X-58245Y-1240559D01*
G01X-57379Y-1239866D01*
G01X-54781Y-1237269D01*
G01X-53742Y-1235883D01*
G01X-52703Y-1234324D01*
G01X-51318Y-1231900D01*
G01X-50625Y-1230168D01*
G01X-50106Y-1228609D01*
G01X-49586Y-1226878D01*
G01X-49239Y-1224280D01*
G01X-49066Y-1222375D01*
G01X-49066Y-1221336D01*
G01X-49239Y-1219604D01*
G01X-49586Y-1217699D01*
G01X-49932Y-1216314D01*
G01X-50279Y-1215101D01*
G01X-50798Y-1213889D01*
G01X-51318Y-1212850D01*
G01X-52011Y-1211638D01*
G01X-52876Y-1210426D01*
G01X-54608Y-1208347D01*
G01X-55474Y-1207481D01*
G01X-56686Y-1206442D01*
G01X-59111Y-1204711D01*
G01X-60496Y-1203844D01*
G01X-63267Y-1202459D01*
G01X-66038Y-1201420D01*
G01X-67770Y-1200727D01*
G01X-71234Y-1199688D01*
G01X-73658Y-1198996D01*
G01X-75563Y-1198649D01*
G01X-76776Y-1198303D01*
G01X-78161Y-1197956D01*
G01X-79546Y-1197783D01*
G01X-81105Y-1197264D01*
G01X-83356Y-1196744D01*
G01X-89071Y-1195186D01*
G01X-90803Y-1194666D01*
G01X-92362Y-1194146D01*
G01X-95479Y-1192761D01*
G01X-96864Y-1191895D01*
G01X-98077Y-1190856D01*
G01X-98769Y-1189990D01*
G01X-99462Y-1188778D01*
G01X-100155Y-1187219D01*
G01X-100501Y-1184102D01*
G01X-100155Y-1180984D01*
G01X-99462Y-1179426D01*
G01X-98769Y-1178214D01*
G01X-98077Y-1177348D01*
G01X-96345Y-1175616D01*
G01X-95306Y-1174923D01*
G01X-94267Y-1174404D01*
G01X-93054Y-1173884D01*
G01X-91669Y-1173364D01*
G01X-90284Y-1173018D01*
G01X-88898Y-1172845D01*
G01X-87513Y-1172499D01*
G01X-85781Y-1172326D01*
G01X-84396Y-1172152D01*
G01X-81278Y-1171979D01*
G01X-78161Y-1172152D01*
G01X-76776Y-1172326D01*
G01X-74004Y-1173018D01*
G01X-72446Y-1173364D01*
G01X-70714Y-1174057D01*
G01X-69329Y-1174750D01*
G01X-68289Y-1175443D01*
G01X-67251Y-1176309D01*
G01X-66384Y-1177174D01*
G01X-65346Y-1178387D01*
G01X-64479Y-1179772D01*
G01X-63787Y-1181158D01*
G01X-63094Y-1182889D01*
G01X-62574Y-1184621D01*
G01X-62401Y-1186180D01*
G01X-61882Y-1187219D01*
G01X-59631Y-1187566D01*
G01X-57379Y-1187392D01*
G01X-54608Y-1187219D01*
G01X-52833Y-1187089D01*
G01X-52011Y-1186699D01*
G01X-51664Y-1184968D01*
G01X-51837Y-1183236D01*
G01X-52184Y-1181677D01*
G01X-52703Y-1179946D01*
G01X-53742Y-1177174D01*
G01X-55474Y-1174057D01*
G01X-56340Y-1173018D01*
G01X-57726Y-1171286D01*
G01X-59457Y-1169554D01*
G01X-60843Y-1168516D01*
G01X-62574Y-1167303D01*
G01X-64306Y-1166264D01*
G01X-65692Y-1165571D01*
G01X-66904Y-1165052D01*
G01X-68463Y-1164532D01*
G01X-71234Y-1163839D01*
G01X-73139Y-1163320D01*
G01X-75044Y-1162974D01*
G01X-76429Y-1162801D01*
G01X-79893Y-1162454D01*
G01X-82664Y-1162281D01*
G01X-85434Y-1162454D01*
G01X-89244Y-1162801D01*
G01X-90457Y-1162974D01*
G01X-92881Y-1163666D01*
G01X-94267Y-1164013D01*
G01X-95826Y-1164532D01*
G01X-97211Y-1165052D01*
G01X-98769Y-1165744D01*
G01X-100155Y-1166437D01*
G01X-102753Y-1168169D01*
G01X-104138Y-1169208D01*
G01X-105870Y-1170940D01*
G01X-107256Y-1173018D01*
G01X-107948Y-1173884D01*
G01X-109161Y-1176309D01*
G01X-109853Y-1178214D01*
G01X-110373Y-1179772D01*
G01X-110719Y-1181504D01*
G01X-111066Y-1184275D01*
G01X-111066Y-1186699D01*
G01X-110892Y-1188258D01*
G01X-110719Y-1189471D01*
G01X-110026Y-1191549D01*
G01X-109507Y-1192934D01*
G01X-108468Y-1194666D01*
G01X-107429Y-1196224D01*
G01X-106563Y-1197264D01*
G01X-104831Y-1198996D01*
G01X-103099Y-1200381D01*
G01X-101887Y-1201247D01*
G01X-100501Y-1202113D01*
G01X-99289Y-1202806D01*
G01X-98250Y-1203325D01*
G01X-97038Y-1203844D01*
G01X-94267Y-1204884D01*
G01X-92708Y-1205403D01*
G01X-91323Y-1205749D01*
G01X-87859Y-1206789D01*
G01X-86301Y-1207135D01*
G01X-84569Y-1207654D01*
G01X-83183Y-1208001D01*
G01X-81971Y-1208174D01*
G01X-80412Y-1208694D01*
G01X-78161Y-1209213D01*
G01X-76256Y-1209733D01*
G01X-73485Y-1210426D01*
G01X-71926Y-1210945D01*
G01X-70021Y-1211464D01*
G01X-68289Y-1212157D01*
G01X-66731Y-1212850D01*
G01X-65172Y-1213716D01*
G01X-63960Y-1214582D01*
G01X-62574Y-1215621D01*
G01X-61536Y-1217006D01*
G01X-61016Y-1218046D01*
G01X-60323Y-1219604D01*
G01X-59977Y-1223761D01*
G01X-60323Y-1227397D01*
G01X-60843Y-1228609D01*
G01X-61362Y-1229649D01*
G01X-62055Y-1230688D01*
G01X-63787Y-1232419D01*
G01X-64999Y-1233286D01*
G01X-67424Y-1234671D01*
G01X-69156Y-1235364D01*
G01X-71061Y-1235883D01*
G01X-72792Y-1236403D01*
G01X-74697Y-1236749D01*
G01X-76429Y-1236922D01*
G01X-80586Y-1237096D01*
G01X-84742Y-1236922D01*
G01X-86127Y-1236749D01*
G01X-87686Y-1236403D01*
G01X-89591Y-1235883D01*
G01X-91323Y-1235364D01*
G01X-92881Y-1234671D01*
G01X-94267Y-1233978D01*
G01X-95133Y-1233459D01*
G01X-96518Y-1232593D01*
G01X-97904Y-1231554D01*
G01X-99636Y-1229822D01*
G01X-100328Y-1228956D01*
G01X-100848Y-1227917D01*
G01X-101714Y-1226531D01*
G01X-102406Y-1224799D01*
G01X-102926Y-1223414D01*
G01X-103272Y-1222202D01*
G01X-103619Y-1219777D01*
G01X-104138Y-1218738D01*
G01X-105870Y-1218392D01*
G01X-107602Y-1218565D01*
G01X-110373Y-1218911D01*
G01X-112278Y-1219084D01*
G01X-113403Y-1219214D01*
G01X-114009Y-1219604D01*
G01X-114183Y-1220989D01*
G01X-114009Y-1222721D01*
G01X-113836Y-1224107D01*
G01X-113490Y-1225666D01*
G01X-112971Y-1227397D01*
G01X-111931Y-1230168D01*
G01X-111066Y-1231727D01*
G01X-110026Y-1233459D01*
G01X-109161Y-1234844D01*
G01X-107775Y-1236576D01*
G01X-105177Y-1239174D01*
G01X-104311Y-1239866D01*
G01X-101887Y-1241598D01*
G01X-100674Y-1242291D01*
G01X-99289Y-1242984D01*
G01X-98077Y-1243676D01*
G01X-96518Y-1244196D01*
G01X-95133Y-1244716D01*
G01X-93401Y-1245235D01*
G01X-91496Y-1245754D01*
G01X-90111Y-1246101D01*
G01X-88898Y-1246274D01*
G01X-86820Y-1246621D01*
G01X-83876Y-1246794D01*
G01X-82317Y-1246967D01*
G37*
G36*
G01X97619Y-1245581D02*
G01X102294Y-1245754D01*
G01X105628Y-1245625D01*
G01X106971Y-1245235D01*
G01X107317Y-1204191D01*
G01X107317Y-1163666D01*
G01X106451Y-1163493D01*
G01X103334Y-1163320D01*
G01X101515Y-1163536D01*
G01X100563Y-1164186D01*
G01X98484Y-1167303D01*
G01X97619Y-1168516D01*
G01X96926Y-1169381D01*
G01X92596Y-1173711D01*
G01X90864Y-1175096D01*
G01X89999Y-1175962D01*
G01X89133Y-1176655D01*
G01X88267Y-1177174D01*
G01X85842Y-1178906D01*
G01X84803Y-1179599D01*
G01X83418Y-1180465D01*
G01X81859Y-1181331D01*
G01X79434Y-1182716D01*
G01X78049Y-1183409D01*
G01X77356Y-1184275D01*
G01X77183Y-1189124D01*
G01X77356Y-1192371D01*
G01X77876Y-1193454D01*
G01X79088Y-1193107D01*
G01X85323Y-1189990D01*
G01X86881Y-1189124D01*
G01X88267Y-1188258D01*
G01X89479Y-1187566D01*
G01X90518Y-1186873D01*
G01X92943Y-1185141D01*
G01X95714Y-1183063D01*
G01X96579Y-1182370D01*
G01X96883Y-1182240D01*
G01X97099Y-1182543D01*
G01X97272Y-1214236D01*
G01X97619Y-1245581D01*
G37*
G36*
G01X4732253Y721360D02*
G01X4728616Y721533D01*
G01X4727404Y721879D01*
G01X4725672Y722226D01*
G01X4722901Y722919D01*
G01X4721516Y723438D01*
G01X4720130Y724131D01*
G01X4718398Y725170D01*
G01X4717013Y726209D01*
G01X4715281Y727941D01*
G01X4713896Y729673D01*
G01X4713029Y730885D01*
G01X4712337Y732271D01*
G01X4711644Y733829D01*
G01X4710432Y737466D01*
G01X4710086Y740583D01*
G01X4709739Y742315D01*
G01X4709739Y744739D01*
G01X4710432Y746298D01*
G01X4712164Y746644D01*
G01X4713896Y746818D01*
G01X4717013Y747164D01*
G01X4718744Y747337D01*
G01X4719957Y747337D01*
G01X4719957Y745606D01*
G01X4720130Y743008D01*
G01X4720476Y741622D01*
G01X4720823Y739891D01*
G01X4721342Y737986D01*
G01X4721862Y736773D01*
G01X4722901Y735041D01*
G01X4723940Y733829D01*
G01X4725326Y732790D01*
G01X4726538Y732271D01*
G01X4728443Y731751D01*
G01X4730521Y731231D01*
G01X4732253Y731231D01*
G01X4735716Y731924D01*
G01X4737448Y732444D01*
G01X4738834Y733136D01*
G01X4739873Y733829D01*
G01X4740912Y734695D01*
G01X4741951Y736081D01*
G01X4742817Y737812D01*
G01X4743336Y739198D01*
G01X4743683Y743008D01*
G01X4744029Y747511D01*
G01X4744202Y776432D01*
G01X4744202Y804834D01*
G01X4748705Y804834D01*
G01X4754074Y804661D01*
G01X4754939Y804487D01*
G01X4754939Y774527D01*
G01X4754766Y743701D01*
G01X4754420Y741276D01*
G01X4754074Y739198D01*
G01X4753901Y737812D01*
G01X4753554Y736427D01*
G01X4753034Y734868D01*
G01X4752342Y732963D01*
G01X4751476Y731404D01*
G01X4750437Y729846D01*
G01X4749398Y728461D01*
G01X4746800Y725863D01*
G01X4744029Y724131D01*
G01X4741604Y723092D01*
G01X4740046Y722572D01*
G01X4737794Y722053D01*
G01X4736063Y721533D01*
G01X4732253Y721360D01*
G37*
G36*
G01X4966568Y722746D02*
G01X4961719Y722919D01*
G01X4961372Y754611D01*
G01X4961372Y786130D01*
G01X4960679Y785784D01*
G01X4959467Y785264D01*
G01X4958601Y784571D01*
G01X4957389Y783532D01*
G01X4955831Y782493D01*
G01X4954618Y781627D01*
G01X4953233Y780761D01*
G01X4952021Y779896D01*
G01X4949596Y778510D01*
G01X4944401Y775912D01*
G01X4943188Y775393D01*
G01X4941976Y775046D01*
G01X4941456Y776129D01*
G01X4941283Y779376D01*
G01X4941629Y784398D01*
G01X4942842Y785437D01*
G01X4944574Y786303D01*
G01X4946132Y787169D01*
G01X4947171Y787862D01*
G01X4948384Y788554D01*
G01X4950116Y789594D01*
G01X4951501Y790633D01*
G01X4952886Y791499D01*
G01X4954099Y792538D01*
G01X4955831Y793923D01*
G01X4961026Y799119D01*
G01X4963104Y801889D01*
G01X4963797Y802929D01*
G01X4964663Y804314D01*
G01X4965615Y804964D01*
G01X4967434Y805180D01*
G01X4970551Y805007D01*
G01X4971417Y804834D01*
G01X4971417Y764656D01*
G01X4971244Y723611D01*
G01X4971071Y722746D01*
G01X4966568Y722746D01*
G37*
G36*
G01X4808453Y721360D02*
G01X4806028Y721533D01*
G01X4804816Y721706D01*
G01X4802911Y721879D01*
G01X4801526Y722226D01*
G01X4799967Y722399D01*
G01X4798235Y722746D01*
G01X4796503Y723265D01*
G01X4794944Y723784D01*
G01X4792174Y724824D01*
G01X4791134Y725343D01*
G01X4790269Y725863D01*
G01X4787844Y727075D01*
G01X4786632Y727941D01*
G01X4783861Y730019D01*
G01X4782129Y731404D01*
G01X4780397Y733136D01*
G01X4779012Y734868D01*
G01X4778146Y735734D01*
G01X4777280Y736946D01*
G01X4776241Y738505D01*
G01X4775375Y739891D01*
G01X4774682Y741103D01*
G01X4773989Y742142D01*
G01X4772431Y745779D01*
G01X4771911Y747164D01*
G01X4771392Y748723D01*
G01X4770872Y750454D01*
G01X4770353Y752359D01*
G01X4770006Y754438D01*
G01X4769660Y755823D01*
G01X4769314Y761365D01*
G01X4769141Y762577D01*
G01X4769314Y763789D01*
G01X4780571Y763789D01*
G01X4780744Y758594D01*
G01X4781090Y755477D01*
G01X4781436Y754091D01*
G01X4781783Y752359D01*
G01X4782129Y750974D01*
G01X4782476Y749762D01*
G01X4783514Y746991D01*
G01X4784034Y745779D01*
G01X4784727Y744566D01*
G01X4785593Y743008D01*
G01X4786805Y741276D01*
G01X4787844Y739891D01*
G01X4790788Y736946D01*
G01X4792174Y735907D01*
G01X4793386Y735041D01*
G01X4794771Y734176D01*
G01X4795984Y733483D01*
G01X4798408Y732444D01*
G01X4799794Y731924D01*
G01X4801179Y731578D01*
G01X4803604Y731231D01*
G01X4805162Y731058D01*
G01X4805162Y731058D01*
G01X4806374Y730885D01*
G01X4807587Y730712D01*
G01X4809838Y730885D01*
G01X4814687Y731578D01*
G01X4816419Y731924D01*
G01X4817631Y732271D01*
G01X4819017Y732790D01*
G01X4821788Y734176D01*
G01X4823000Y734868D01*
G01X4824039Y735561D01*
G01X4824905Y736254D01*
G01X4825771Y736773D01*
G01X4826637Y737466D01*
G01X4828715Y739544D01*
G01X4829754Y740929D01*
G01X4830620Y742142D01*
G01X4831486Y743527D01*
G01X4832179Y744739D01*
G01X4833218Y746818D01*
G01X4833911Y748376D01*
G01X4834430Y749935D01*
G01X4835123Y752359D01*
G01X4835296Y753745D01*
G01X4835642Y755304D01*
G01X4835989Y757209D01*
G01X4836162Y758941D01*
G01X4836335Y763443D01*
G01X4836162Y767946D01*
G01X4835989Y769331D01*
G01X4835642Y771409D01*
G01X4835123Y773834D01*
G01X4834776Y775566D01*
G01X4834430Y776951D01*
G01X4833911Y778510D01*
G01X4833218Y780242D01*
G01X4832525Y781801D01*
G01X4831139Y784571D01*
G01X4830447Y785611D01*
G01X4829754Y786476D01*
G01X4828888Y787689D01*
G01X4827849Y788901D01*
G01X4826117Y790633D01*
G01X4824732Y791672D01*
G01X4823000Y792884D01*
G01X4821441Y793750D01*
G01X4820056Y794443D01*
G01X4818324Y795136D01*
G01X4816766Y795655D01*
G01X4813994Y796348D01*
G01X4809319Y796521D01*
G01X4803950Y796348D01*
G01X4802218Y796001D01*
G01X4798754Y795136D01*
G01X4797023Y794443D01*
G01X4793906Y792884D01*
G01X4792174Y791672D01*
G01X4790788Y790633D01*
G01X4789056Y789247D01*
G01X4787324Y787516D01*
G01X4786286Y786303D01*
G01X4785246Y784744D01*
G01X4784381Y783186D01*
G01X4783688Y781627D01*
G01X4782995Y779896D01*
G01X4782476Y778337D01*
G01X4781783Y775912D01*
G01X4781609Y774354D01*
G01X4781263Y772622D01*
G01X4780917Y770717D01*
G01X4780744Y768985D01*
G01X4780571Y763789D01*
G01X4769314Y763789D01*
G01X4769487Y766734D01*
G01X4769660Y770024D01*
G01X4770006Y772102D01*
G01X4770353Y773834D01*
G01X4770699Y776259D01*
G01X4771738Y779722D01*
G01X4772084Y780934D01*
G01X4773124Y783706D01*
G01X4773816Y785264D01*
G01X4774682Y786823D01*
G01X4775375Y788035D01*
G01X4776241Y789421D01*
G01X4777280Y790979D01*
G01X4779704Y794096D01*
G01X4782822Y797214D01*
G01X4785593Y799292D01*
G01X4787151Y800331D01*
G01X4788537Y801197D01*
G01X4790096Y802063D01*
G01X4791481Y802756D01*
G01X4792693Y803275D01*
G01X4795464Y804314D01*
G01X4797369Y804834D01*
G01X4799101Y805353D01*
G01X4803950Y806046D01*
G01X4806894Y806219D01*
G01X4809838Y806046D01*
G01X4813994Y805699D01*
G01X4815207Y805526D01*
G01X4816766Y805353D01*
G01X4818844Y804834D01*
G01X4820576Y804314D01*
G01X4821788Y803968D01*
G01X4823173Y803448D01*
G01X4824905Y802756D01*
G01X4826810Y801889D01*
G01X4828369Y801024D01*
G01X4829408Y800331D01*
G01X4830620Y799465D01*
G01X4832179Y798426D01*
G01X4833737Y797214D01*
G01X4834949Y796174D01*
G01X4835989Y795309D01*
G01X4836854Y794269D01*
G01X4838933Y791672D01*
G01X4839972Y790459D01*
G01X4840838Y789247D01*
G01X4841531Y788035D01*
G01X4843955Y783186D01*
G01X4844994Y780415D01*
G01X4845514Y778856D01*
G01X4846033Y776778D01*
G01X4846553Y774527D01*
G01X4846899Y772449D01*
G01X4847246Y771063D01*
G01X4847419Y763963D01*
G01X4847072Y756343D01*
G01X4846553Y753745D01*
G01X4846206Y751667D01*
G01X4845167Y748203D01*
G01X4844821Y746991D01*
G01X4844301Y745606D01*
G01X4842916Y742488D01*
G01X4842223Y741103D01*
G01X4841357Y739544D01*
G01X4840491Y738332D01*
G01X4839972Y737293D01*
G01X4839279Y736254D01*
G01X4837547Y734176D01*
G01X4833044Y729673D01*
G01X4829927Y727594D01*
G01X4828542Y726729D01*
G01X4825424Y725170D01*
G01X4824212Y724651D01*
G01X4822827Y724131D01*
G01X4819709Y723092D01*
G01X4817978Y722572D01*
G01X4816073Y722226D01*
G01X4814687Y721879D01*
G01X4811224Y721533D01*
G01X4808453Y721360D01*
G37*
G36*
G01X4890021Y722746D02*
G01X4884826Y722919D01*
G01X4884479Y740237D01*
G01X4884350Y753312D01*
G01X4883960Y758248D01*
G01X4878764Y766041D01*
G01X4877899Y767426D01*
G01X4876859Y768985D01*
G01X4875647Y770717D01*
G01X4857983Y797214D01*
G01X4857117Y798426D01*
G01X4856251Y799811D01*
G01X4855385Y801024D01*
G01X4854692Y802063D01*
G01X4853826Y803448D01*
G01X4853307Y804487D01*
G01X4859714Y804834D01*
G01X4864607Y804704D01*
G01X4866469Y804314D01*
G01X4867334Y803102D01*
G01X4868374Y801543D01*
G01X4869239Y800158D01*
G01X4869932Y799119D01*
G01X4870798Y797733D01*
G01X4871664Y796521D01*
G01X4872357Y795482D01*
G01X4874089Y792711D01*
G01X4875474Y790633D01*
G01X4876340Y789247D01*
G01X4877379Y787689D01*
G01X4878245Y786476D01*
G01X4878938Y785437D01*
G01X4879804Y784052D01*
G01X4880843Y782493D01*
G01X4881882Y780761D01*
G01X4883960Y777644D01*
G01X4886038Y774181D01*
G01X4886904Y772795D01*
G01X4887597Y771583D01*
G01X4888463Y770024D01*
G01X4889502Y768292D01*
G01X4890368Y767080D01*
G01X4890757Y766993D01*
G01X4891234Y767426D01*
G01X4892273Y768985D01*
G01X4893139Y770371D01*
G01X4893831Y771583D01*
G01X4894697Y772968D01*
G01X4895736Y774527D01*
G01X4896602Y775912D01*
G01X4897295Y777124D01*
G01X4899373Y780242D01*
G01X4900239Y781627D01*
G01X4903356Y786303D01*
G01X4904222Y787689D01*
G01X4904915Y788728D01*
G01X4905781Y790113D01*
G01X4906647Y791326D01*
G01X4907339Y792364D01*
G01X4908206Y793750D01*
G01X4911323Y798426D01*
G01X4912362Y800158D01*
G01X4913228Y801370D01*
G01X4914959Y803968D01*
G01X4915652Y804834D01*
G01X4921194Y804834D01*
G01X4927256Y804661D01*
G01X4927602Y804141D01*
G01X4926736Y802929D01*
G01X4925524Y801197D01*
G01X4924484Y799638D01*
G01X4922753Y797214D01*
G01X4921714Y795655D01*
G01X4919982Y793231D01*
G01X4918943Y791672D01*
G01X4918077Y790459D01*
G01X4916691Y788381D01*
G01X4915826Y787169D01*
G01X4914786Y785611D01*
G01X4913574Y783879D01*
G01X4912535Y782493D01*
G01X4911669Y781108D01*
G01X4909244Y777644D01*
G01X4908379Y776432D01*
G01X4906647Y773834D01*
G01X4905434Y772102D01*
G01X4904396Y770544D01*
G01X4902664Y768119D01*
G01X4901624Y766561D01*
G01X4896776Y759633D01*
G01X4895909Y758421D01*
G01X4895563Y740929D01*
G01X4895217Y723265D01*
G01X4893745Y722875D01*
G01X4890021Y722746D01*
G37*
G36*
G01X3828850Y-2335819D02*
G01X3830149Y-2336338D01*
G01X3829976Y-2337897D01*
G01X3826858Y-2346209D01*
G01X3826339Y-2347422D01*
G01X3825819Y-2348807D01*
G01X3825299Y-2350366D01*
G01X3824780Y-2351578D01*
G01X3823741Y-2354349D01*
G01X3823221Y-2355561D01*
G01X3822182Y-2358332D01*
G01X3821663Y-2359544D01*
G01X3820104Y-2363701D01*
G01X3819411Y-2365433D01*
G01X3818026Y-2369243D01*
G01X3817333Y-2370801D01*
G01X3812657Y-2383271D01*
G01X3811618Y-2385695D01*
G01X3811099Y-2387254D01*
G01X3810059Y-2390024D01*
G01X3809367Y-2391756D01*
G01X3808674Y-2393315D01*
G01X3804518Y-2404399D01*
G01X3803998Y-2405611D01*
G01X3802439Y-2409767D01*
G01X3801747Y-2411499D01*
G01X3801054Y-2413404D01*
G01X3799322Y-2417734D01*
G01X3794300Y-2417734D01*
G01X3788412Y-2417561D01*
G01X3787373Y-2416868D01*
G01X3786853Y-2415656D01*
G01X3786161Y-2413924D01*
G01X3785468Y-2412365D01*
G01X3784429Y-2409594D01*
G01X3783043Y-2406477D01*
G01X3782524Y-2405091D01*
G01X3781484Y-2402667D01*
G01X3780965Y-2401281D01*
G01X3779926Y-2398857D01*
G01X3778887Y-2396086D01*
G01X3777501Y-2392969D01*
G01X3776982Y-2391583D01*
G01X3775943Y-2389159D01*
G01X3775423Y-2387773D01*
G01X3774384Y-2385349D01*
G01X3773345Y-2382578D01*
G01X3772306Y-2380153D01*
G01X3771613Y-2378594D01*
G01X3770921Y-2376689D01*
G01X3770228Y-2375131D01*
G01X3769708Y-2373746D01*
G01X3769189Y-2372533D01*
G01X3768496Y-2370974D01*
G01X3768181Y-2370109D01*
G01X3779753Y-2370109D01*
G01X3780272Y-2371148D01*
G01X3787026Y-2389159D01*
G01X3787546Y-2390717D01*
G01X3788066Y-2392103D01*
G01X3788585Y-2393315D01*
G01X3789104Y-2394701D01*
G01X3789624Y-2396259D01*
G01X3790663Y-2399030D01*
G01X3791356Y-2400935D01*
G01X3792049Y-2403013D01*
G01X3792568Y-2404399D01*
G01X3792914Y-2405784D01*
G01X3793434Y-2407169D01*
G01X3793781Y-2407429D01*
G01X3794127Y-2407169D01*
G01X3794646Y-2406131D01*
G01X3794993Y-2404399D01*
G01X3795512Y-2402147D01*
G01X3796032Y-2400242D01*
G01X3796551Y-2398684D01*
G01X3797071Y-2396952D01*
G01X3798110Y-2393834D01*
G01X3799149Y-2391064D01*
G01X3799669Y-2389505D01*
G01X3801747Y-2383963D01*
G01X3802266Y-2382751D01*
G01X3802786Y-2381366D01*
G01X3803479Y-2379461D01*
G01X3804171Y-2377729D01*
G01X3806769Y-2370801D01*
G01X3806769Y-2370801D01*
G01X3806769Y-2369762D01*
G01X3793088Y-2369589D01*
G01X3783000Y-2369719D01*
G01X3779753Y-2370109D01*
G01X3768181Y-2370109D01*
G01X3767803Y-2369069D01*
G01X3767111Y-2367511D01*
G01X3765725Y-2364047D01*
G01X3765206Y-2362662D01*
G01X3764686Y-2361449D01*
G01X3763301Y-2358332D01*
G01X3762261Y-2355561D01*
G01X3761222Y-2353137D01*
G01X3760183Y-2350366D01*
G01X3758624Y-2346729D01*
G01X3758105Y-2345344D01*
G01X3757066Y-2342919D01*
G01X3756373Y-2341187D01*
G01X3755681Y-2339629D01*
G01X3754641Y-2336858D01*
G01X3754641Y-2335992D01*
G01X3759664Y-2335646D01*
G01X3765552Y-2335819D01*
G01X3766504Y-2336122D01*
G01X3766937Y-2336684D01*
G01X3767457Y-2337897D01*
G01X3768149Y-2339456D01*
G01X3768842Y-2341361D01*
G01X3769535Y-2343092D01*
G01X3770054Y-2344478D01*
G01X3770574Y-2346036D01*
G01X3771267Y-2347595D01*
G01X3774384Y-2355908D01*
G01X3774904Y-2357120D01*
G01X3775943Y-2359891D01*
G01X3780316Y-2360411D01*
G01X3793088Y-2360584D01*
G01X3810233Y-2360237D01*
G01X3810752Y-2359544D01*
G01X3811272Y-2358159D01*
G01X3811791Y-2356601D01*
G01X3813350Y-2352444D01*
G01X3813869Y-2350886D01*
G01X3814909Y-2348114D01*
G01X3815948Y-2344997D01*
G01X3818026Y-2339456D01*
G01X3818719Y-2337724D01*
G01X3819411Y-2336165D01*
G01X3820970Y-2335775D01*
G01X3824953Y-2335646D01*
G01X3828850Y-2335819D01*
G37*
G36*
G01X3723988Y-2335646D02*
G01X3750658Y-2335819D01*
G01X3750831Y-2337897D01*
G01X3750485Y-2340494D01*
G01X3749446Y-2343612D01*
G01X3748926Y-2344824D01*
G01X3748407Y-2345863D01*
G01X3747714Y-2347076D01*
G01X3746848Y-2348634D01*
G01X3745809Y-2350193D01*
G01X3744943Y-2351405D01*
G01X3742172Y-2354869D01*
G01X3735764Y-2361276D01*
G01X3734379Y-2362316D01*
G01X3733513Y-2363181D01*
G01X3731435Y-2364913D01*
G01X3730569Y-2365779D01*
G01X3729703Y-2366472D01*
G01X3728491Y-2367338D01*
G01X3727279Y-2368377D01*
G01X3725547Y-2369762D01*
G01X3724334Y-2370974D01*
G01X3722949Y-2372014D01*
G01X3722083Y-2372879D01*
G01X3720005Y-2374611D01*
G01X3715676Y-2378941D01*
G01X3714290Y-2380673D01*
G01X3713078Y-2381885D01*
G01X3712039Y-2383271D01*
G01X3711173Y-2384656D01*
G01X3710134Y-2386388D01*
G01X3709268Y-2387946D01*
G01X3708575Y-2389505D01*
G01X3708056Y-2390891D01*
G01X3707709Y-2393315D01*
G01X3707536Y-2395220D01*
G01X3707709Y-2397125D01*
G01X3707882Y-2398337D01*
G01X3708229Y-2400242D01*
G01X3708921Y-2401801D01*
G01X3709614Y-2403013D01*
G01X3710480Y-2404226D01*
G01X3712385Y-2406131D01*
G01X3713424Y-2406996D01*
G01X3714636Y-2407689D01*
G01X3716022Y-2408382D01*
G01X3718446Y-2409074D01*
G01X3722256Y-2409421D01*
G01X3726066Y-2409248D01*
G01X3727452Y-2408901D01*
G01X3729011Y-2408382D01*
G01X3730569Y-2407689D01*
G01X3732128Y-2406823D01*
G01X3733686Y-2405784D01*
G01X3734899Y-2404745D01*
G01X3735591Y-2403879D01*
G01X3736284Y-2402840D01*
G01X3736977Y-2401628D01*
G01X3737496Y-2400416D01*
G01X3737843Y-2399203D01*
G01X3738536Y-2396432D01*
G01X3738709Y-2394874D01*
G01X3739055Y-2393488D01*
G01X3739921Y-2393315D01*
G01X3741479Y-2393488D01*
G01X3744077Y-2393661D01*
G01X3746156Y-2394008D01*
G01X3747887Y-2394181D01*
G01X3749099Y-2394181D01*
G01X3748926Y-2395047D01*
G01X3748580Y-2397471D01*
G01X3748234Y-2399549D01*
G01X3747714Y-2401281D01*
G01X3747021Y-2403359D01*
G01X3745636Y-2406131D01*
G01X3744943Y-2407343D01*
G01X3744424Y-2408209D01*
G01X3743731Y-2409074D01*
G01X3741653Y-2411499D01*
G01X3739055Y-2413577D01*
G01X3738016Y-2414270D01*
G01X3736804Y-2414963D01*
G01X3735418Y-2415656D01*
G01X3733513Y-2416348D01*
G01X3731262Y-2417041D01*
G01X3728837Y-2417561D01*
G01X3727106Y-2417907D01*
G01X3722776Y-2418080D01*
G01X3717754Y-2417734D01*
G01X3715329Y-2417214D01*
G01X3713251Y-2416694D01*
G01X3711346Y-2416002D01*
G01X3709787Y-2415309D01*
G01X3708402Y-2414616D01*
G01X3706843Y-2413751D01*
G01X3705631Y-2413058D01*
G01X3704765Y-2412365D01*
G01X3702687Y-2410287D01*
G01X3701648Y-2408901D01*
G01X3700955Y-2408036D01*
G01X3700089Y-2406823D01*
G01X3699223Y-2405264D01*
G01X3698531Y-2403706D01*
G01X3697838Y-2401801D01*
G01X3697318Y-2400242D01*
G01X3697145Y-2396086D01*
G01X3697318Y-2391583D01*
G01X3698011Y-2388812D01*
G01X3698531Y-2386907D01*
G01X3699223Y-2385349D01*
G01X3700782Y-2382231D01*
G01X3701821Y-2380673D01*
G01X3702687Y-2379461D01*
G01X3706843Y-2374265D01*
G01X3711519Y-2369589D01*
G01X3712904Y-2368550D01*
G01X3714636Y-2366818D01*
G01X3716368Y-2365433D01*
G01X3717234Y-2364567D01*
G01X3719659Y-2362489D01*
G01X3720524Y-2361623D01*
G01X3723988Y-2358852D01*
G01X3724854Y-2357986D01*
G01X3726932Y-2356254D01*
G01X3727798Y-2355388D01*
G01X3729530Y-2354003D01*
G01X3730396Y-2353137D01*
G01X3731435Y-2352271D01*
G01X3732821Y-2351059D01*
G01X3735591Y-2347595D01*
G01X3736457Y-2346036D01*
G01X3736631Y-2345344D01*
G01X3696799Y-2345344D01*
G01X3696799Y-2341014D01*
G01X3697145Y-2336165D01*
G01X3704029Y-2335775D01*
G01X3723988Y-2335646D01*
G37*
G36*
G01X1833247Y4200467D02*
G01X1832901Y4194233D01*
G01X1833074Y4189643D01*
G01X1833593Y4187652D01*
G01X1835152Y4186439D01*
G01X1836364Y4185574D01*
G01X1837230Y4184881D01*
G01X1838616Y4183842D01*
G01X1842079Y4181417D01*
G01X1843464Y4180378D01*
G01X1845889Y4178646D01*
G01X1847274Y4177607D01*
G01X1849006Y4176395D01*
G01X1857492Y4170334D01*
G01X1858358Y4169641D01*
G01X1859744Y4168602D01*
G01X1862341Y4166870D01*
G01X1863554Y4166004D01*
G01X1864939Y4165138D01*
G01X1865978Y4164446D01*
G01X1866844Y4163753D01*
G01X1866844Y4162887D01*
G01X1865805Y4162194D01*
G01X1864766Y4161674D01*
G01X1863554Y4160809D01*
G01X1861822Y4159596D01*
G01X1860436Y4158557D01*
G01X1859224Y4157691D01*
G01X1857666Y4156652D01*
G01X1855934Y4155440D01*
G01X1854548Y4154401D01*
G01X1852470Y4153016D01*
G01X1851084Y4151976D01*
G01X1848487Y4150244D01*
G01X1847621Y4149552D01*
G01X1845196Y4147820D01*
G01X1843811Y4146781D01*
G01X1841213Y4145049D01*
G01X1840347Y4144356D01*
G01X1838269Y4142971D01*
G01X1834632Y4140373D01*
G01X1833593Y4139507D01*
G01X1833074Y4138295D01*
G01X1832901Y4132061D01*
G01X1833247Y4126346D01*
G01X1833939Y4126346D01*
G01X1834806Y4127038D01*
G01X1836884Y4128424D01*
G01X1841040Y4131541D01*
G01X1842772Y4132753D01*
G01X1844331Y4133792D01*
G01X1850392Y4138122D01*
G01X1853163Y4140200D01*
G01X1855241Y4141586D01*
G01X1858012Y4143664D01*
G01X1860090Y4145049D01*
G01X1861476Y4146088D01*
G01X1863207Y4147301D01*
G01X1864419Y4148166D01*
G01X1865286Y4148859D01*
G01X1866498Y4149725D01*
G01X1868056Y4150764D01*
G01X1870481Y4152496D01*
G01X1872213Y4153708D01*
G01X1873598Y4154747D01*
G01X1874811Y4155613D01*
G01X1876369Y4156306D01*
G01X1877105Y4156306D01*
G01X1877581Y4155959D01*
G01X1878447Y4155267D01*
G01X1879313Y4154747D01*
G01X1880179Y4154054D01*
G01X1881564Y4153016D01*
G01X1883296Y4151630D01*
G01X1885028Y4150418D01*
G01X1886241Y4149379D01*
G01X1887106Y4148686D01*
G01X1887972Y4148166D01*
G01X1890397Y4146434D01*
G01X1891263Y4145742D01*
G01X1909274Y4132234D01*
G01X1911006Y4131021D01*
G01X1912218Y4130156D01*
G01X1913084Y4129463D01*
G01X1914123Y4128597D01*
G01X1914642Y4128077D01*
G01X1914816Y4128943D01*
G01X1914989Y4134831D01*
G01X1914989Y4139854D01*
G01X1914123Y4140373D01*
G01X1912911Y4141239D01*
G01X1912044Y4141932D01*
G01X1907888Y4145049D01*
G01X1906156Y4146434D01*
G01X1899229Y4151630D01*
G01X1897497Y4153016D01*
G01X1890570Y4158211D01*
G01X1888838Y4159423D01*
G01X1885721Y4161501D01*
G01X1884509Y4162541D01*
G01X1884379Y4162973D01*
G01X1884682Y4163233D01*
G01X1885894Y4163926D01*
G01X1888665Y4165658D01*
G01X1890224Y4166697D01*
G01X1895419Y4170334D01*
G01X1896804Y4171373D01*
G01X1898883Y4172758D01*
G01X1900268Y4173797D01*
G01X1902000Y4175009D01*
G01X1903212Y4175876D01*
G01X1904078Y4176568D01*
G01X1906156Y4177954D01*
G01X1907542Y4178993D01*
G01X1910139Y4180724D01*
G01X1913776Y4183322D01*
G01X1914469Y4183928D01*
G01X1914816Y4184708D01*
G01X1914989Y4191116D01*
G01X1914859Y4195272D01*
G01X1914469Y4196657D01*
G01X1913603Y4196311D01*
G01X1911179Y4194579D01*
G01X1910313Y4193886D01*
G01X1908927Y4192847D01*
G01X1900268Y4186786D01*
G01X1899056Y4185920D01*
G01X1898190Y4185227D01*
G01X1896804Y4184188D01*
G01X1894207Y4182456D01*
G01X1893341Y4181764D01*
G01X1892129Y4180898D01*
G01X1890570Y4179859D01*
G01X1889358Y4178993D01*
G01X1888492Y4178300D01*
G01X1887279Y4177434D01*
G01X1885721Y4176395D01*
G01X1884509Y4175356D01*
G01X1882431Y4173971D01*
G01X1881564Y4173278D01*
G01X1880699Y4172758D01*
G01X1879486Y4171892D01*
G01X1877754Y4170680D01*
G01X1876023Y4169814D01*
G01X1874637Y4169987D01*
G01X1872213Y4171719D01*
G01X1862514Y4178993D01*
G01X1860783Y4180205D01*
G01X1859571Y4181071D01*
G01X1858704Y4181764D01*
G01X1854548Y4184881D01*
G01X1852816Y4186093D01*
G01X1851604Y4187132D01*
G01X1850738Y4187825D01*
G01X1849872Y4188344D01*
G01X1849006Y4189037D01*
G01X1846582Y4190769D01*
G01X1845716Y4191462D01*
G01X1844504Y4192328D01*
G01X1842772Y4193540D01*
G01X1841386Y4194579D01*
G01X1840521Y4195272D01*
G01X1838096Y4197004D01*
G01X1837230Y4197696D01*
G01X1834806Y4199428D01*
G01X1833939Y4200294D01*
G01X1833593Y4200597D01*
G01X1833247Y4200467D01*
G37*
G36*
G01X1833247Y4092402D02*
G01X1832901Y4087553D01*
G01X1833074Y4084089D01*
G01X1833593Y4082704D01*
G01X1874637Y4082357D01*
G01X1914989Y4082357D01*
G01X1915162Y4083223D01*
G01X1915335Y4086514D01*
G01X1915119Y4088462D01*
G01X1914469Y4089458D01*
G01X1912911Y4090324D01*
G01X1911352Y4091363D01*
G01X1909966Y4092402D01*
G01X1909101Y4093268D01*
G01X1907369Y4094653D01*
G01X1905637Y4096385D01*
G01X1902866Y4099849D01*
G01X1902000Y4100714D01*
G01X1901307Y4101581D01*
G01X1900788Y4102446D01*
G01X1899402Y4104524D01*
G01X1898536Y4105737D01*
G01X1897497Y4107469D01*
G01X1895939Y4110586D01*
G01X1895073Y4111798D01*
G01X1893687Y4112664D01*
G01X1889184Y4112837D01*
G01X1886414Y4112664D01*
G01X1885374Y4112144D01*
G01X1885548Y4110932D01*
G01X1886067Y4109720D01*
G01X1887106Y4107642D01*
G01X1887626Y4106429D01*
G01X1890397Y4101581D01*
G01X1891263Y4100195D01*
G01X1893341Y4097078D01*
G01X1894380Y4095866D01*
G01X1896458Y4093268D01*
G01X1888708Y4092878D01*
G01X1865112Y4092748D01*
G01X1833247Y4092402D01*
G37*
G36*
G01X-11544Y911860D02*
G01X-14661Y912033D01*
G01X-16046Y912206D01*
G01X-17778Y912379D01*
G01X-19683Y912726D01*
G01X-21934Y913072D01*
G01X-24013Y913592D01*
G01X-25744Y914111D01*
G01X-27303Y914631D01*
G01X-29035Y915324D01*
G01X-30247Y916016D01*
G01X-31633Y916709D01*
G01X-32845Y917402D01*
G01X-33884Y917921D01*
G01X-34923Y918614D01*
G01X-36655Y919999D01*
G01X-40465Y923809D01*
G01X-41504Y925195D01*
G01X-43582Y928312D01*
G01X-45661Y932469D01*
G01X-46353Y934027D01*
G01X-47739Y937837D01*
G01X-48778Y941994D01*
G01X-49297Y944245D01*
G01X-49644Y946669D01*
G01X-49990Y948055D01*
G01X-50163Y954636D01*
G01X-49990Y961217D01*
G01X-49644Y962776D01*
G01X-49297Y964681D01*
G01X-48951Y966759D01*
G01X-48431Y968664D01*
G01X-48085Y970049D01*
G01X-47739Y971261D01*
G01X-46699Y974032D01*
G01X-46007Y975591D01*
G01X-45141Y977496D01*
G01X-44275Y978881D01*
G01X-42889Y980959D01*
G01X-42197Y982172D01*
G01X-41331Y983211D01*
G01X-39253Y985636D01*
G01X-37174Y987714D01*
G01X-35789Y988753D01*
G01X-34577Y989619D01*
G01X-33018Y990658D01*
G01X-31806Y991524D01*
G01X-30767Y992043D01*
G01X-29554Y992563D01*
G01X-26784Y993948D01*
G01X-23666Y994987D01*
G01X-22454Y995334D01*
G01X-19683Y996026D01*
G01X-18471Y996199D01*
G01X-13622Y996546D01*
G01X-12236Y996719D01*
G01X-10851Y996546D01*
G01X-6002Y996199D01*
G01X-4789Y996026D01*
G01X-3058Y995680D01*
G01X-1153Y995161D01*
G01X233Y994814D01*
G01X1618Y994294D01*
G01X3350Y993602D01*
G01X4736Y992909D01*
G01X5948Y992216D01*
G01X7333Y991351D01*
G01X8546Y990658D01*
G01X9411Y989965D01*
G01X11836Y987887D01*
G01X12702Y987021D01*
G01X14087Y985289D01*
G01X15299Y984077D01*
G01X16339Y982518D01*
G01X17204Y980959D01*
G01X18071Y979574D01*
G01X18590Y978535D01*
G01X19109Y977323D01*
G01X19629Y975937D01*
G01X20149Y974725D01*
G01X20495Y973339D01*
G01X20322Y972690D01*
G01X19802Y972474D01*
G01X18071Y972127D01*
G01X16512Y971608D01*
G01X15126Y971434D01*
G01X13568Y971088D01*
G01X11489Y970569D01*
G01X10364Y970612D01*
G01X9758Y971088D01*
G01X9065Y972820D01*
G01X8372Y974379D01*
G01X6987Y977149D01*
G01X6121Y978535D01*
G01X5255Y979747D01*
G01X4562Y980613D01*
G01X1964Y983211D01*
G01X-806Y984943D01*
G01X-2365Y985636D01*
G01X-3924Y986155D01*
G01X-6694Y986848D01*
G01X-11197Y987021D01*
G01X-16739Y986848D01*
G01X-19164Y986328D01*
G01X-22627Y985289D01*
G01X-25398Y983904D01*
G01X-26611Y983211D01*
G01X-27649Y982691D01*
G01X-28689Y981999D01*
G01X-29554Y981133D01*
G01X-30594Y980267D01*
G01X-31286Y979401D01*
G01X-31979Y978708D01*
G01X-33018Y977496D01*
G01X-34057Y975764D01*
G01X-34923Y974379D01*
G01X-35962Y971954D01*
G01X-36655Y970222D01*
G01X-37174Y968491D01*
G01X-37521Y967278D01*
G01X-37867Y965719D01*
G01X-38214Y963641D01*
G01X-38560Y961909D01*
G01X-38906Y958099D01*
G01X-39079Y955675D01*
G01X-38560Y948401D01*
G01X-38214Y946496D01*
G01X-37867Y943899D01*
G01X-37521Y942167D01*
G01X-37174Y940608D01*
G01X-36655Y938876D01*
G01X-36136Y937491D01*
G01X-35616Y936279D01*
G01X-34923Y934893D01*
G01X-34231Y933334D01*
G01X-33364Y931949D01*
G01X-32326Y930391D01*
G01X-31286Y929178D01*
G01X-29554Y927446D01*
G01X-27823Y926061D01*
G01X-26611Y925195D01*
G01X-25052Y924329D01*
G01X-23666Y923636D01*
G01X-20896Y922597D01*
G01X-18991Y922078D01*
G01X-17086Y921731D01*
G01X-14661Y921385D01*
G01X-13102Y921212D01*
G01X-11544Y921385D01*
G01X-10158Y921558D01*
G01X-8426Y921731D01*
G01X-4963Y922424D01*
G01X-3577Y922944D01*
G01X-2192Y923636D01*
G01X-633Y924329D01*
G01X579Y925022D01*
G01X3004Y926754D01*
G01X5601Y929351D01*
G01X6294Y930391D01*
G01X6814Y931429D01*
G01X7506Y932296D01*
G01X8199Y933334D01*
G01X9758Y936971D01*
G01X10277Y938357D01*
G01X10970Y941128D01*
G01X11143Y941994D01*
G01X12529Y941821D01*
G01X14780Y941301D01*
G01X16512Y940781D01*
G01X19283Y940089D01*
G01X21188Y939569D01*
G01X22227Y939223D01*
G01X21881Y938357D01*
G01X21361Y936971D01*
G01X21014Y935759D01*
G01X20495Y934374D01*
G01X19802Y932642D01*
G01X19109Y931083D01*
G01X17724Y928312D01*
G01X16858Y926927D01*
G01X15819Y925368D01*
G01X14607Y923809D01*
G01X13568Y922424D01*
G01X11836Y920692D01*
G01X10104Y919307D01*
G01X9238Y918441D01*
G01X7853Y917575D01*
G01X6641Y916709D01*
G01X5428Y916016D01*
G01X4043Y915324D01*
G01X1618Y914284D01*
G01X233Y913765D01*
G01X-1499Y913246D01*
G01X-3577Y912726D01*
G01X-5309Y912379D01*
G01X-8080Y912033D01*
G01X-11544Y911860D01*
G37*
G36*
G01X222944Y913246D02*
G01X218269Y913419D01*
G01X217922Y945284D01*
G01X217836Y969010D01*
G01X217576Y976803D01*
G01X216364Y975937D01*
G01X214632Y974552D01*
G01X212900Y973339D01*
G01X211688Y972474D01*
G01X210649Y971781D01*
G01X207878Y970049D01*
G01X206666Y969356D01*
G01X205280Y968664D01*
G01X204068Y967971D01*
G01X203029Y967451D01*
G01X201816Y966932D01*
G01X199738Y965893D01*
G01X198526Y965546D01*
G01X198006Y966629D01*
G01X197833Y969876D01*
G01X198179Y974898D01*
G01X199392Y975937D01*
G01X201124Y976803D01*
G01X202682Y977669D01*
G01X203721Y978362D01*
G01X204934Y979054D01*
G01X206666Y980094D01*
G01X208051Y981133D01*
G01X209436Y981999D01*
G01X210649Y983038D01*
G01X212381Y984423D01*
G01X217576Y989619D01*
G01X219654Y992389D01*
G01X220347Y993429D01*
G01X221213Y994814D01*
G01X222165Y995464D01*
G01X223984Y995680D01*
G01X227101Y995507D01*
G01X227967Y995334D01*
G01X227967Y954809D01*
G01X227621Y913765D01*
G01X226278Y913375D01*
G01X222944Y913246D01*
G37*
G36*
G01X40931Y913246D02*
G01X35735Y913419D01*
G01X35389Y953597D01*
G01X35401Y956541D01*
G01X46472Y956541D01*
G01X58595Y956541D01*
G01X71237Y956714D01*
G01X72449Y956887D01*
G01X74701Y957061D01*
G01X76779Y957580D01*
G01X78338Y958099D01*
G01X79723Y958619D01*
G01X80762Y959139D01*
G01X81801Y959831D01*
G01X83879Y961909D01*
G01X84919Y963468D01*
G01X85611Y964854D01*
G01X86131Y966412D01*
G01X86477Y967798D01*
G01X86651Y970569D01*
G01X86477Y973339D01*
G01X86304Y974725D01*
G01X85958Y976284D01*
G01X85265Y977842D01*
G01X84572Y979228D01*
G01X83879Y980440D01*
G01X83014Y981479D01*
G01X82148Y982345D01*
G01X81109Y983211D01*
G01X79896Y983904D01*
G01X78511Y984423D01*
G01X76952Y984943D01*
G01X75567Y985289D01*
G01X74354Y985462D01*
G01X60154Y985636D01*
G01X46472Y985636D01*
G01X46472Y956541D01*
G01X46472Y956541D01*
G01X35401Y956541D01*
G01X35562Y994468D01*
G01X35735Y995334D01*
G01X54266Y995334D01*
G01X73316Y995161D01*
G01X76433Y994814D01*
G01X80589Y994121D01*
G01X84746Y992736D01*
G01X86131Y992216D01*
G01X87516Y991524D01*
G01X88556Y990831D01*
G01X91153Y988753D01*
G01X91846Y988060D01*
G01X92885Y986848D01*
G01X93924Y985462D01*
G01X94617Y984423D01*
G01X95656Y982345D01*
G01X96176Y981133D01*
G01X96695Y979747D01*
G01X97214Y978016D01*
G01X97561Y976457D01*
G01X97734Y975071D01*
G01X97907Y972993D01*
G01X97907Y970222D01*
G01X97561Y967451D01*
G01X97214Y965373D01*
G01X96695Y963468D01*
G01X95829Y960871D01*
G01X95136Y959485D01*
G01X94097Y957753D01*
G01X93058Y956194D01*
G01X92192Y954982D01*
G01X89594Y952384D01*
G01X88382Y951519D01*
G01X86997Y950653D01*
G01X85784Y949960D01*
G01X84572Y949441D01*
G01X81801Y948401D01*
G01X80589Y948055D01*
G01X79377Y947882D01*
G01X77991Y947536D01*
G01X76259Y947189D01*
G01X74701Y947016D01*
G01X69159Y946669D01*
G01X57556Y946496D01*
G01X46472Y946496D01*
G01X46472Y930391D01*
G01X46126Y913765D01*
G01X44654Y913375D01*
G01X40931Y913246D01*
G37*
G36*
G01X143627Y911860D02*
G01X140164Y912033D01*
G01X138086Y912379D01*
G01X135661Y912726D01*
G01X133583Y913072D01*
G01X132024Y913592D01*
G01X130639Y913938D01*
G01X129426Y914284D01*
G01X127002Y915324D01*
G01X125616Y916016D01*
G01X124058Y916882D01*
G01X122672Y917748D01*
G01X120594Y919480D01*
G01X119209Y920692D01*
G01X117131Y923463D01*
G01X116091Y925195D01*
G01X115399Y926581D01*
G01X114706Y928139D01*
G01X114013Y930044D01*
G01X113494Y931429D01*
G01X113321Y932815D01*
G01X112974Y934374D01*
G01X112628Y936106D01*
G01X112108Y940781D01*
G01X111762Y947016D01*
G01X111589Y970222D01*
G01X111762Y994121D01*
G01X111935Y995334D01*
G01X116957Y995334D01*
G01X122499Y994987D01*
G01X122889Y987973D01*
G01X123019Y967624D01*
G01X123192Y940089D01*
G01X123538Y937318D01*
G01X123884Y935759D01*
G01X124404Y933508D01*
G01X125097Y931776D01*
G01X125789Y930391D01*
G01X126482Y929178D01*
G01X127348Y927966D01*
G01X128734Y926407D01*
G01X130466Y925195D01*
G01X131851Y924329D01*
G01X132890Y923809D01*
G01X134102Y923290D01*
G01X135488Y922771D01*
G01X136700Y922424D01*
G01X139471Y922078D01*
G01X142415Y921904D01*
G01X145359Y922078D01*
G01X147091Y922251D01*
G01X149862Y922424D01*
G01X152633Y922944D01*
G01X154884Y923636D01*
G01X156789Y924502D01*
G01X158174Y925368D01*
G01X159906Y926754D01*
G01X160772Y927619D01*
G01X161465Y928486D01*
G01X162158Y929698D01*
G01X162851Y931083D01*
G01X163370Y932469D01*
G01X163889Y934374D01*
G01X164409Y935932D01*
G01X164756Y938357D01*
G01X165102Y943899D01*
G01X165275Y969010D01*
G01X165448Y994468D01*
G01X165621Y995334D01*
G01X170124Y995334D01*
G01X175493Y995161D01*
G01X176359Y994987D01*
G01X176359Y969529D01*
G01X176186Y943552D01*
G01X175839Y939049D01*
G01X175493Y937318D01*
G01X175146Y934893D01*
G01X174800Y933161D01*
G01X174454Y931776D01*
G01X173934Y929871D01*
G01X173241Y928139D01*
G01X172549Y926581D01*
G01X171683Y924849D01*
G01X170471Y923117D01*
G01X169431Y921731D01*
G01X166834Y919134D01*
G01X165968Y918441D01*
G01X165102Y917921D01*
G01X164236Y917229D01*
G01X163024Y916363D01*
G01X158867Y914284D01*
G01X156443Y913592D01*
G01X154711Y913072D01*
G01X152286Y912726D01*
G01X150554Y912379D01*
G01X146744Y912033D01*
G01X143627Y911860D01*
G37*
G36*
G01X-3825873Y-104140D02*
G01X-3828817Y-103967D01*
G01X-3830376Y-103794D01*
G01X-3833320Y-103621D01*
G01X-3835398Y-103274D01*
G01X-3836611Y-103101D01*
G01X-3837996Y-102754D01*
G01X-3839901Y-102235D01*
G01X-3841633Y-101716D01*
G01X-3843018Y-101196D01*
G01X-3844577Y-100676D01*
G01X-3845789Y-99984D01*
G01X-3847174Y-99291D01*
G01X-3848387Y-98598D01*
G01X-3850811Y-96866D01*
G01X-3851677Y-96174D01*
G01X-3854275Y-93576D01*
G01X-3855661Y-91844D01*
G01X-3856526Y-90459D01*
G01X-3857566Y-88727D01*
G01X-3858431Y-87168D01*
G01X-3859471Y-84397D01*
G01X-3859990Y-82666D01*
G01X-3860336Y-81107D01*
G01X-3860509Y-79721D01*
G01X-3860683Y-77989D01*
G01X-3860509Y-76604D01*
G01X-3859903Y-76214D01*
G01X-3858778Y-76084D01*
G01X-3856873Y-75911D01*
G01X-3854102Y-75565D01*
G01X-3852370Y-75392D01*
G01X-3850638Y-75738D01*
G01X-3850119Y-76777D01*
G01X-3849772Y-79202D01*
G01X-3849426Y-80414D01*
G01X-3848906Y-81799D01*
G01X-3848214Y-83531D01*
G01X-3847348Y-84917D01*
G01X-3846828Y-85956D01*
G01X-3846136Y-86822D01*
G01X-3844404Y-88554D01*
G01X-3843018Y-89593D01*
G01X-3841633Y-90459D01*
G01X-3840767Y-90978D01*
G01X-3839381Y-91671D01*
G01X-3837823Y-92364D01*
G01X-3836091Y-92883D01*
G01X-3834186Y-93403D01*
G01X-3832627Y-93749D01*
G01X-3831242Y-93922D01*
G01X-3827086Y-94096D01*
G01X-3822929Y-93922D01*
G01X-3821197Y-93749D01*
G01X-3819292Y-93403D01*
G01X-3817561Y-92883D01*
G01X-3815656Y-92364D01*
G01X-3813924Y-91671D01*
G01X-3811499Y-90286D01*
G01X-3810287Y-89419D01*
G01X-3808555Y-87688D01*
G01X-3807862Y-86649D01*
G01X-3807343Y-85609D01*
G01X-3806823Y-84397D01*
G01X-3806477Y-80761D01*
G01X-3806823Y-76604D01*
G01X-3807516Y-75046D01*
G01X-3808036Y-74006D01*
G01X-3809074Y-72621D01*
G01X-3810460Y-71582D01*
G01X-3811672Y-70716D01*
G01X-3813231Y-69850D01*
G01X-3814789Y-69157D01*
G01X-3816521Y-68464D01*
G01X-3818426Y-67945D01*
G01X-3819985Y-67426D01*
G01X-3822756Y-66733D01*
G01X-3824661Y-66213D01*
G01X-3826912Y-65694D01*
G01X-3828471Y-65174D01*
G01X-3829683Y-65001D01*
G01X-3831069Y-64654D01*
G01X-3832801Y-64135D01*
G01X-3834359Y-63789D01*
G01X-3837823Y-62749D01*
G01X-3839208Y-62403D01*
G01X-3840767Y-61884D01*
G01X-3843538Y-60844D01*
G01X-3844750Y-60325D01*
G01X-3845789Y-59806D01*
G01X-3847001Y-59113D01*
G01X-3848387Y-58247D01*
G01X-3849599Y-57381D01*
G01X-3851331Y-55996D01*
G01X-3853063Y-54264D01*
G01X-3853929Y-53224D01*
G01X-3854968Y-51666D01*
G01X-3856007Y-49934D01*
G01X-3856526Y-48549D01*
G01X-3857219Y-46471D01*
G01X-3857392Y-45258D01*
G01X-3857566Y-43699D01*
G01X-3857566Y-41275D01*
G01X-3857219Y-38504D01*
G01X-3856873Y-36772D01*
G01X-3856353Y-35214D01*
G01X-3855661Y-33309D01*
G01X-3854448Y-30884D01*
G01X-3853756Y-30018D01*
G01X-3852370Y-27940D01*
G01X-3850638Y-26208D01*
G01X-3849253Y-25169D01*
G01X-3846655Y-23437D01*
G01X-3845269Y-22744D01*
G01X-3843711Y-22052D01*
G01X-3842326Y-21532D01*
G01X-3840767Y-21013D01*
G01X-3839381Y-20666D01*
G01X-3836957Y-19974D01*
G01X-3835744Y-19801D01*
G01X-3831934Y-19454D01*
G01X-3829164Y-19281D01*
G01X-3826393Y-19454D01*
G01X-3822929Y-19801D01*
G01X-3821544Y-19974D01*
G01X-3819639Y-20320D01*
G01X-3817734Y-20839D01*
G01X-3814963Y-21532D01*
G01X-3813404Y-22052D01*
G01X-3812192Y-22571D01*
G01X-3810806Y-23264D01*
G01X-3809074Y-24303D01*
G01X-3807343Y-25516D01*
G01X-3805957Y-26554D01*
G01X-3804226Y-28286D01*
G01X-3802840Y-30018D01*
G01X-3801974Y-31057D01*
G01X-3800242Y-34174D01*
G01X-3799203Y-36946D01*
G01X-3798684Y-38677D01*
G01X-3798337Y-40236D01*
G01X-3798164Y-41968D01*
G01X-3798511Y-43699D01*
G01X-3799333Y-44089D01*
G01X-3801108Y-44219D01*
G01X-3803879Y-44392D01*
G01X-3806131Y-44566D01*
G01X-3808382Y-44219D01*
G01X-3808901Y-43180D01*
G01X-3809074Y-41621D01*
G01X-3809594Y-39889D01*
G01X-3810287Y-38158D01*
G01X-3810979Y-36772D01*
G01X-3811846Y-35387D01*
G01X-3812884Y-34174D01*
G01X-3813751Y-33309D01*
G01X-3814789Y-32443D01*
G01X-3815829Y-31750D01*
G01X-3817214Y-31057D01*
G01X-3818946Y-30364D01*
G01X-3820504Y-30018D01*
G01X-3823276Y-29326D01*
G01X-3824661Y-29152D01*
G01X-3827778Y-28979D01*
G01X-3830896Y-29152D01*
G01X-3832281Y-29326D01*
G01X-3834013Y-29499D01*
G01X-3835398Y-29845D01*
G01X-3836784Y-30018D01*
G01X-3838169Y-30364D01*
G01X-3839554Y-30884D01*
G01X-3840767Y-31404D01*
G01X-3841806Y-31923D01*
G01X-3842845Y-32616D01*
G01X-3844577Y-34348D01*
G01X-3845269Y-35214D01*
G01X-3845962Y-36426D01*
G01X-3846655Y-37984D01*
G01X-3847001Y-41102D01*
G01X-3846655Y-44219D01*
G01X-3845962Y-45778D01*
G01X-3845269Y-46990D01*
G01X-3844577Y-47856D01*
G01X-3843364Y-48895D01*
G01X-3841979Y-49761D01*
G01X-3838862Y-51146D01*
G01X-3837303Y-51666D01*
G01X-3835571Y-52186D01*
G01X-3829856Y-53744D01*
G01X-3827605Y-54264D01*
G01X-3826046Y-54783D01*
G01X-3824661Y-54956D01*
G01X-3823276Y-55303D01*
G01X-3822063Y-55649D01*
G01X-3820158Y-55996D01*
G01X-3817734Y-56688D01*
G01X-3814270Y-57727D01*
G01X-3812538Y-58420D01*
G01X-3809767Y-59459D01*
G01X-3806996Y-60844D01*
G01X-3805611Y-61711D01*
G01X-3803186Y-63442D01*
G01X-3801974Y-64481D01*
G01X-3801108Y-65347D01*
G01X-3799376Y-67426D01*
G01X-3798511Y-68638D01*
G01X-3797818Y-69850D01*
G01X-3797298Y-70889D01*
G01X-3796779Y-72101D01*
G01X-3796432Y-73314D01*
G01X-3796086Y-74699D01*
G01X-3795739Y-76604D01*
G01X-3795566Y-78336D01*
G01X-3795566Y-79375D01*
G01X-3795739Y-81280D01*
G01X-3796086Y-83878D01*
G01X-3796606Y-85609D01*
G01X-3797125Y-87168D01*
G01X-3797818Y-88900D01*
G01X-3799203Y-91324D01*
G01X-3800242Y-92883D01*
G01X-3801281Y-94269D01*
G01X-3803879Y-96866D01*
G01X-3804745Y-97559D01*
G01X-3805957Y-98425D01*
G01X-3807689Y-99464D01*
G01X-3809074Y-100330D01*
G01X-3812192Y-101716D01*
G01X-3813751Y-102235D01*
G01X-3815829Y-102754D01*
G01X-3818080Y-103274D01*
G01X-3819812Y-103621D01*
G01X-3822583Y-103967D01*
G01X-3825873Y-104140D01*
G37*
G36*
G01X-3763354Y-102754D02*
G01X-3781019Y-102581D01*
G01X-3781121Y-78856D01*
G01X-3770455Y-78856D01*
G01X-3770282Y-92883D01*
G01X-3760064Y-93056D01*
G01X-3749500Y-92883D01*
G01X-3746383Y-92537D01*
G01X-3742226Y-92191D01*
G01X-3740668Y-91844D01*
G01X-3738936Y-91324D01*
G01X-3737377Y-90805D01*
G01X-3736165Y-90112D01*
G01X-3735299Y-89246D01*
G01X-3734260Y-88381D01*
G01X-3733394Y-87341D01*
G01X-3732701Y-86476D01*
G01X-3732009Y-85263D01*
G01X-3731489Y-83878D01*
G01X-3731143Y-82666D01*
G01X-3730796Y-80414D01*
G01X-3730796Y-78336D01*
G01X-3730969Y-76604D01*
G01X-3731316Y-74872D01*
G01X-3731836Y-73487D01*
G01X-3732355Y-72274D01*
G01X-3732874Y-71236D01*
G01X-3733567Y-70196D01*
G01X-3735299Y-68464D01*
G01X-3736511Y-67599D01*
G01X-3737897Y-66906D01*
G01X-3739109Y-66386D01*
G01X-3740841Y-65867D01*
G01X-3742573Y-65521D01*
G01X-3747422Y-65174D01*
G01X-3759198Y-65001D01*
G01X-3770455Y-65001D01*
G01X-3770455Y-78856D01*
G01X-3770455Y-78856D01*
G01X-3781121Y-78856D01*
G01X-3781192Y-62403D01*
G01X-3781108Y-42487D01*
G01X-3770455Y-42487D01*
G01X-3770282Y-54783D01*
G01X-3759025Y-54956D01*
G01X-3746383Y-54783D01*
G01X-3743958Y-54437D01*
G01X-3742573Y-54091D01*
G01X-3741014Y-53571D01*
G01X-3739456Y-52878D01*
G01X-3738416Y-52359D01*
G01X-3737551Y-51666D01*
G01X-3736684Y-50800D01*
G01X-3735819Y-49588D01*
G01X-3735126Y-48202D01*
G01X-3734606Y-46817D01*
G01X-3734260Y-45431D01*
G01X-3734087Y-44046D01*
G01X-3734260Y-41621D01*
G01X-3734779Y-39024D01*
G01X-3735472Y-37119D01*
G01X-3736338Y-35560D01*
G01X-3737204Y-34348D01*
G01X-3738936Y-32962D01*
G01X-3740321Y-32096D01*
G01X-3742573Y-31404D01*
G01X-3744304Y-30884D01*
G01X-3748807Y-30538D01*
G01X-3759891Y-30364D01*
G01X-3770455Y-30364D01*
G01X-3770455Y-42487D01*
G01X-3770455Y-42487D01*
G01X-3781108Y-42487D01*
G01X-3781019Y-21532D01*
G01X-3780846Y-20666D01*
G01X-3763701Y-20666D01*
G01X-3745690Y-20839D01*
G01X-3743958Y-21186D01*
G01X-3739802Y-21879D01*
G01X-3738070Y-22398D01*
G01X-3736684Y-22918D01*
G01X-3735646Y-23264D01*
G01X-3734606Y-23784D01*
G01X-3733394Y-24476D01*
G01X-3731836Y-25516D01*
G01X-3730450Y-26554D01*
G01X-3727852Y-29152D01*
G01X-3727159Y-30018D01*
G01X-3726467Y-31057D01*
G01X-3725774Y-32269D01*
G01X-3725081Y-33828D01*
G01X-3724389Y-35560D01*
G01X-3723696Y-38331D01*
G01X-3723349Y-41621D01*
G01X-3723696Y-44912D01*
G01X-3724042Y-46297D01*
G01X-3724389Y-47509D01*
G01X-3724908Y-48722D01*
G01X-3725428Y-49761D01*
G01X-3726813Y-52186D01*
G01X-3727506Y-53224D01*
G01X-3728372Y-54264D01*
G01X-3729238Y-55129D01*
G01X-3730969Y-56515D01*
G01X-3732182Y-57554D01*
G01X-3733394Y-58420D01*
G01X-3733394Y-59286D01*
G01X-3732355Y-59979D01*
G01X-3731143Y-60498D01*
G01X-3730104Y-61018D01*
G01X-3729238Y-61537D01*
G01X-3728026Y-62230D01*
G01X-3726813Y-63096D01*
G01X-3723349Y-66559D01*
G01X-3722657Y-67599D01*
G01X-3721271Y-70023D01*
G01X-3720232Y-72794D01*
G01X-3719886Y-74006D01*
G01X-3719713Y-75219D01*
G01X-3719539Y-78509D01*
G01X-3719713Y-81799D01*
G01X-3720059Y-84224D01*
G01X-3720406Y-85436D01*
G01X-3720925Y-87168D01*
G01X-3721618Y-88727D01*
G01X-3723003Y-91498D01*
G01X-3723696Y-92537D01*
G01X-3725774Y-95308D01*
G01X-3726640Y-96174D01*
G01X-3727506Y-96866D01*
G01X-3728718Y-97732D01*
G01X-3730450Y-98771D01*
G01X-3732009Y-99637D01*
G01X-3733221Y-100157D01*
G01X-3736338Y-101196D01*
G01X-3739109Y-101889D01*
G01X-3742573Y-102235D01*
G01X-3745344Y-102581D01*
G01X-3763354Y-102754D01*
G37*
G36*
G01X-3675898Y-102754D02*
G01X-3680747Y-102408D01*
G01X-3681093Y-71582D01*
G01X-3681266Y-40236D01*
G01X-3681526Y-39673D01*
G01X-3681959Y-39716D01*
G01X-3684730Y-41794D01*
G01X-3685596Y-42487D01*
G01X-3686635Y-43180D01*
G01X-3689406Y-44912D01*
G01X-3690445Y-45604D01*
G01X-3694082Y-47683D01*
G01X-3696853Y-49068D01*
G01X-3698411Y-49761D01*
G01X-3699970Y-50281D01*
G01X-3700836Y-50454D01*
G01X-3700836Y-45778D01*
G01X-3700706Y-42184D01*
G01X-3700316Y-40756D01*
G01X-3699104Y-39889D01*
G01X-3697546Y-39024D01*
G01X-3695814Y-38158D01*
G01X-3693043Y-36426D01*
G01X-3691484Y-35387D01*
G01X-3690272Y-34521D01*
G01X-3689406Y-33828D01*
G01X-3688367Y-33136D01*
G01X-3687328Y-32269D01*
G01X-3685596Y-30884D01*
G01X-3681786Y-27074D01*
G01X-3679708Y-24303D01*
G01X-3678496Y-22571D01*
G01X-3677629Y-21013D01*
G01X-3676764Y-20493D01*
G01X-3674859Y-20320D01*
G01X-3671568Y-20493D01*
G01X-3670702Y-20666D01*
G01X-3670702Y-61191D01*
G01X-3671049Y-102235D01*
G01X-3672434Y-102625D01*
G01X-3675898Y-102754D01*
G37*
G36*
G01X-4804004Y976746D02*
G01X-4809199Y976919D01*
G01X-4809546Y1017097D01*
G01X-4809464Y1036320D01*
G01X-4798462Y1036320D01*
G01X-4798289Y1022985D01*
G01X-4784608Y1022812D01*
G01X-4769887Y1022985D01*
G01X-4768156Y1023331D01*
G01X-4766943Y1023504D01*
G01X-4765038Y1023851D01*
G01X-4762960Y1024544D01*
G01X-4761574Y1025236D01*
G01X-4760362Y1025929D01*
G01X-4759323Y1026795D01*
G01X-4758457Y1027661D01*
G01X-4757591Y1028700D01*
G01X-4756726Y1030086D01*
G01X-4756033Y1031817D01*
G01X-4755513Y1033549D01*
G01X-4755167Y1035627D01*
G01X-4755340Y1037879D01*
G01X-4756033Y1040649D01*
G01X-4756552Y1042035D01*
G01X-4757245Y1043421D01*
G01X-4758111Y1044633D01*
G01X-4759843Y1046364D01*
G01X-4760882Y1047057D01*
G01X-4762267Y1047750D01*
G01X-4763999Y1048443D01*
G01X-4765384Y1048962D01*
G01X-4768156Y1049309D01*
G01X-4783569Y1049482D01*
G01X-4798462Y1049482D01*
G01X-4798462Y1036320D01*
G01X-4798462Y1036320D01*
G01X-4809464Y1036320D01*
G01X-4809373Y1057968D01*
G01X-4809199Y1058834D01*
G01X-4788244Y1058834D01*
G01X-4766770Y1058661D01*
G01X-4762614Y1057968D01*
G01X-4760189Y1057621D01*
G01X-4756726Y1056582D01*
G01X-4755513Y1056063D01*
G01X-4754128Y1055370D01*
G01X-4753089Y1054677D01*
G01X-4751876Y1053811D01*
G01X-4750664Y1052772D01*
G01X-4748932Y1051041D01*
G01X-4748066Y1049828D01*
G01X-4747201Y1048443D01*
G01X-4746508Y1047231D01*
G01X-4745815Y1045672D01*
G01X-4745122Y1043940D01*
G01X-4744429Y1041169D01*
G01X-4744083Y1036320D01*
G01X-4744429Y1031644D01*
G01X-4744949Y1030086D01*
G01X-4745469Y1028354D01*
G01X-4746854Y1025583D01*
G01X-4747893Y1024024D01*
G01X-4748932Y1022639D01*
G01X-4749798Y1021599D01*
G01X-4750664Y1020734D01*
G01X-4751876Y1019694D01*
G01X-4753608Y1018482D01*
G01X-4754994Y1017616D01*
G01X-4756206Y1017097D01*
G01X-4757245Y1016577D01*
G01X-4758457Y1016058D01*
G01X-4760016Y1015538D01*
G01X-4761921Y1015019D01*
G01X-4763653Y1014672D01*
G01X-4765211Y1014499D01*
G01X-4766251Y1014499D01*
G01X-4765904Y1013806D01*
G01X-4765428Y1013244D01*
G01X-4764692Y1012941D01*
G01X-4763479Y1012248D01*
G01X-4761401Y1010862D01*
G01X-4760536Y1009996D01*
G01X-4758804Y1008611D01*
G01X-4757072Y1006533D01*
G01X-4756206Y1005667D01*
G01X-4755513Y1004801D01*
G01X-4754994Y1003935D01*
G01X-4754301Y1003069D01*
G01X-4753262Y1001857D01*
G01X-4751184Y998739D01*
G01X-4750318Y997354D01*
G01X-4748932Y995276D01*
G01X-4748239Y994064D01*
G01X-4747374Y992678D01*
G01X-4746508Y991466D01*
G01X-4745815Y990427D01*
G01X-4745122Y989214D01*
G01X-4744256Y987829D01*
G01X-4743217Y986271D01*
G01X-4742178Y984539D01*
G01X-4741312Y983326D01*
G01X-4740619Y982287D01*
G01X-4738888Y979516D01*
G01X-4738195Y978477D01*
G01X-4737849Y977438D01*
G01X-4739321Y976919D01*
G01X-4743737Y976746D01*
G01X-4750491Y977092D01*
G01X-4751703Y978131D01*
G01X-4752569Y979516D01*
G01X-4753608Y981075D01*
G01X-4754647Y982807D01*
G01X-4756726Y985924D01*
G01X-4757764Y987656D01*
G01X-4758804Y989214D01*
G01X-4761401Y993371D01*
G01X-4762094Y994410D01*
G01X-4762960Y995622D01*
G01X-4763826Y997008D01*
G01X-4764519Y998047D01*
G01X-4765384Y999259D01*
G01X-4766424Y1000818D01*
G01X-4767636Y1002549D01*
G01X-4769714Y1005321D01*
G01X-4770753Y1006533D01*
G01X-4771446Y1007399D01*
G01X-4774044Y1009996D01*
G01X-4775083Y1010689D01*
G01X-4777507Y1012074D01*
G01X-4779066Y1012594D01*
G01X-4780624Y1012941D01*
G01X-4789803Y1013114D01*
G01X-4798462Y1013114D01*
G01X-4798462Y995449D01*
G01X-4798809Y977265D01*
G01X-4800281Y976875D01*
G01X-4804004Y976746D01*
G37*
G36*
G01X-4624068Y976746D02*
G01X-4628744Y976919D01*
G01X-4629091Y1008264D01*
G01X-4629264Y1039957D01*
G01X-4629610Y1040173D01*
G01X-4630303Y1039784D01*
G01X-4634459Y1036666D01*
G01X-4635671Y1035801D01*
G01X-4637230Y1034761D01*
G01X-4638962Y1033722D01*
G01X-4640347Y1032856D01*
G01X-4646582Y1029739D01*
G01X-4648141Y1029219D01*
G01X-4649179Y1029046D01*
G01X-4649179Y1033376D01*
G01X-4649006Y1038225D01*
G01X-4648314Y1039091D01*
G01X-4645889Y1040303D01*
G01X-4644157Y1041342D01*
G01X-4642772Y1042208D01*
G01X-4641559Y1042901D01*
G01X-4640001Y1043940D01*
G01X-4638616Y1044806D01*
G01X-4634286Y1048269D01*
G01X-4629956Y1052599D01*
G01X-4628917Y1053811D01*
G01X-4627878Y1055370D01*
G01X-4627012Y1056582D01*
G01X-4625627Y1058661D01*
G01X-4624804Y1059050D01*
G01X-4623029Y1059180D01*
G01X-4619912Y1059007D01*
G01X-4619046Y1058834D01*
G01X-4619046Y1018309D01*
G01X-4619392Y977265D01*
G01X-4620734Y976875D01*
G01X-4624068Y976746D01*
G37*
G36*
G01X-4704121Y976875D02*
G01X-4705637Y977265D01*
G01X-4706329Y978304D01*
G01X-4708408Y983846D01*
G01X-4708927Y985058D01*
G01X-4709966Y987829D01*
G01X-4711006Y990254D01*
G01X-4712564Y994410D01*
G01X-4713257Y995969D01*
G01X-4713776Y997354D01*
G01X-4714296Y998913D01*
G01X-4714989Y1000644D01*
G01X-4716028Y1003416D01*
G01X-4716721Y1004974D01*
G01X-4717240Y1006359D01*
G01X-4717759Y1007918D01*
G01X-4718452Y1009477D01*
G01X-4720531Y1015019D01*
G01X-4721916Y1018482D01*
G01X-4723474Y1022639D01*
G01X-4724514Y1025063D01*
G01X-4725033Y1026622D01*
G01X-4725553Y1028007D01*
G01X-4726072Y1029219D01*
G01X-4727111Y1031991D01*
G01X-4727631Y1033203D01*
G01X-4730229Y1040130D01*
G01X-4731614Y1043594D01*
G01X-4732134Y1044979D01*
G01X-4732653Y1046191D01*
G01X-4733692Y1048962D01*
G01X-4734212Y1050174D01*
G01X-4736809Y1057102D01*
G01X-4737156Y1058314D01*
G01X-4735727Y1058704D01*
G01X-4731441Y1058834D01*
G01X-4727111Y1058704D01*
G01X-4725553Y1058314D01*
G01X-4725033Y1057275D01*
G01X-4723994Y1054158D01*
G01X-4722436Y1050001D01*
G01X-4721916Y1048443D01*
G01X-4721223Y1046538D01*
G01X-4720531Y1044806D01*
G01X-4719491Y1041689D01*
G01X-4718452Y1038918D01*
G01X-4717413Y1035801D01*
G01X-4716721Y1034069D01*
G01X-4716028Y1032164D01*
G01X-4715508Y1030605D01*
G01X-4714989Y1029219D01*
G01X-4713949Y1026102D01*
G01X-4712391Y1021946D01*
G01X-4711871Y1020387D01*
G01X-4710486Y1016577D01*
G01X-4709966Y1015019D01*
G01X-4708408Y1010862D01*
G01X-4707369Y1007745D01*
G01X-4706329Y1004974D01*
G01X-4705291Y1001857D01*
G01X-4704771Y1000471D01*
G01X-4703212Y995796D01*
G01X-4702519Y994064D01*
G01X-4702000Y992505D01*
G01X-4701654Y991119D01*
G01X-4700614Y988002D01*
G01X-4700355Y987439D01*
G01X-4699922Y987483D01*
G01X-4699229Y988868D01*
G01X-4697671Y993544D01*
G01X-4697151Y994929D01*
G01X-4695592Y999606D01*
G01X-4693514Y1005147D01*
G01X-4692821Y1006879D01*
G01X-4691436Y1010689D01*
G01X-4690743Y1012421D01*
G01X-4690224Y1013979D01*
G01X-4685028Y1027834D01*
G01X-4684509Y1029393D01*
G01X-4683816Y1031298D01*
G01X-4683123Y1033029D01*
G01X-4680006Y1041342D01*
G01X-4678967Y1044459D01*
G01X-4678447Y1045672D01*
G01X-4677928Y1047057D01*
G01X-4677408Y1048616D01*
G01X-4676889Y1050001D01*
G01X-4676369Y1051214D01*
G01X-4675849Y1052599D01*
G01X-4675157Y1054331D01*
G01X-4674464Y1056236D01*
G01X-4673425Y1058834D01*
G01X-4668922Y1058834D01*
G01X-4663554Y1058661D01*
G01X-4662688Y1058487D01*
G01X-4663034Y1057621D01*
G01X-4663727Y1055716D01*
G01X-4664419Y1054158D01*
G01X-4666498Y1048616D01*
G01X-4667537Y1046191D01*
G01X-4669615Y1040649D01*
G01X-4670134Y1039437D01*
G01X-4671693Y1035281D01*
G01X-4672386Y1033722D01*
G01X-4673079Y1031991D01*
G01X-4673771Y1030086D01*
G01X-4674464Y1028527D01*
G01X-4676542Y1022985D01*
G01X-4677581Y1020561D01*
G01X-4679659Y1015019D01*
G01X-4680179Y1013806D01*
G01X-4680699Y1012421D01*
G01X-4681391Y1010689D01*
G01X-4682084Y1009131D01*
G01X-4685201Y1000818D01*
G01X-4686241Y998393D01*
G01X-4687279Y995622D01*
G01X-4687799Y994410D01*
G01X-4689877Y988868D01*
G01X-4690397Y987656D01*
G01X-4691089Y986097D01*
G01X-4691782Y984192D01*
G01X-4693168Y980729D01*
G01X-4693861Y978824D01*
G01X-4694726Y977265D01*
G01X-4696372Y976875D01*
G01X-4700268Y976746D01*
G01X-4704121Y976875D01*
G37*
G04 Text End*

G04 PolygonModel Start*
G54D16*
G01X3352975Y-2280920D02*
G01X3353823Y-1710632D01*
G01X3353823Y-1710632D02*
G01X2300567Y-1709420D01*
G01X3817795Y-254000D02*
G01X2293795Y-254000D01*
G01X2538648Y-254000D02*
G01X2538648Y508000D01*
G01X2538648Y508000D02*
G01X2801795Y508000D01*
G01X2801795Y508000D02*
G01X2801795Y0D01*
G01X2801795Y0D02*
G01X3055795Y0D01*
G01X3055795Y0D02*
G01X3055795Y508000D01*
G01X3055795Y508000D02*
G01X3309795Y508000D01*
G01X3309795Y508000D02*
G01X3309795Y0D01*
G01X3309795Y0D02*
G01X3563795Y0D01*
G01X3563795Y0D02*
G01X3563795Y508000D01*
G01X2538661Y-127000D02*
G01X3563795Y-127000D01*
G01X3690795Y-1397000D02*
G01X3436795Y-1397000D01*
G01X3436795Y-1397000D02*
G01X3436795Y-635000D01*
G01X3436795Y-635000D02*
G01X3690795Y-635000D01*
G01X3690795Y-635000D02*
G01X3690795Y-1397000D01*
G01X3182795Y-1270000D02*
G01X2674795Y-1270000D01*
G01X2674795Y-1270000D02*
G01X2674795Y-762000D01*
G01X2674795Y-762000D02*
G01X3182795Y-762000D01*
G01X3182795Y-762000D02*
G01X3182795Y-1270000D01*
G01X-436705Y2540000D02*
G01X7795Y2984500D01*
G01X452295Y2540000D01*
G01X7795Y2095500D01*
G01X-436705Y2540000D01*
G54D14*
G01X236395Y4089400D02*
G01X236395Y4152900D01*
G01X287195Y4152900D01*
G01X287195Y4089400D01*
G01X-271605Y4089400D02*
G01X-271605Y4152900D01*
G01X-220805Y4152900D01*
G01X-220805Y4089400D01*
G01X-373205Y4445000D02*
G01X-906605Y4445000D01*
G01X-906605Y1143000D01*
G01X922195Y1143000D01*
G01X922195Y4445000D01*
G01X388795Y4445000D01*
G01X-373205Y4673600D02*
G01X388795Y4673600D01*
G01X388795Y4089400D01*
G01X-373205Y4089400D01*
G01X-373205Y4673600D01*
G01X-309705Y4610100D02*
G01X-246205Y4610100D01*
G01X-246205Y4432300D01*
G01X-309705Y4432300D01*
G01X-309705Y4610100D01*
G01X261795Y4610100D02*
G01X325295Y4610100D01*
G01X325295Y4432300D01*
G01X261795Y4432300D01*
G01X261795Y4610100D01*
G01X1785795Y3683000D02*
G01X1531795Y3683000D01*
G01X1531795Y3683000D02*
G01X1531795Y4191000D01*
G01X1531795Y4191000D02*
G01X1785795Y4191000D01*
G01X1785795Y4191000D02*
G01X1785795Y4000500D01*
G54D10*
G01X1785795Y3683000D02*
G01X1785795Y4000500D01*
G54D16*
G01X267795Y-2256498D02*
G01X-252204Y-2256498D01*
G01X-252204Y-2256498D02*
G01X-252204Y-1426500D01*
G01X-252204Y-1426500D02*
G01X267795Y-1426500D01*
G01X267795Y-1426500D02*
G01X267795Y-2256498D01*
G01X120774Y-2025515D02*
G03X121790Y-1655503I-119162J185335D01*
G01X-105184Y-1657487D02*
G03X-106205Y-2027499I119160J-185336D01*
G01X-4855238Y-2778506D02*
G03X-5005238Y-2628506I-150000J0D01*
G01X-2465238Y-2628506D02*
G03X-2615238Y-2778506I0J-150000D01*
G01X-2615238Y-238506D02*
G03X-2465238Y-388506I150000J0D01*
G01X-5005238Y-388506D02*
G03X-4855238Y-238506I0J150000D01*
G01X-5005238Y-388506D02*
G01X-5005238Y-2622879D01*
G01X-2465238Y-388506D02*
G01X-2465238Y-2622879D01*
G01X-4855238Y-2778506D02*
G01X-2620865Y-2778506D01*
G01X-4855238Y-238506D02*
G01X-2620865Y-238506D01*
G01X-3741131Y3691598D02*
G03X-3591131Y3541598I150000J0D01*
G01X-6131131Y3541598D02*
G03X-5981131Y3691598I0J150000D01*
G01X-5981131Y1151598D02*
G03X-6131131Y1301598I-150000J0D01*
G01X-3591131Y1301598D02*
G03X-3741131Y1151598I0J-150000D01*
G01X-3591131Y1301598D02*
G01X-3591131Y3535971D01*
G01X-6131131Y1301598D02*
G01X-6131131Y3535971D01*
G01X-3741131Y3691598D02*
G01X-5975504Y3691598D01*
G01X-3741131Y1151598D02*
G01X-5975504Y1151598D01*
G01X-4399193Y2688298D02*
G03X-4399181Y2154919I-461938J-266700D01*
G01X-4399181Y2154919D02*
G01X-4522976Y2126570D01*
G01X-4399181Y2154919D02*
G01X-4370832Y2031123D01*
G01X-4399193Y2688298D02*
G01X-4370844Y2812093D01*
G01X-4399193Y2688298D02*
G01X-4522989Y2716647D01*
G01X3500295Y3469500D02*
G03X3650295Y3619500I0J150000D01*
G01X3650295Y1079500D02*
G03X3500295Y1229500I-150000J0D01*
G01X6040295Y1229500D02*
G03X5890295Y1079500I0J-150000D01*
G01X5890295Y3619500D02*
G03X6040295Y3469500I150000J0D01*
G01X5890295Y3619500D02*
G01X3655922Y3619500D01*
G01X5890295Y1079500D02*
G01X3655922Y1079500D01*
G01X3500295Y3469500D02*
G01X3500295Y1235127D01*
G01X6040295Y3469500D02*
G01X6040295Y1235127D01*
G01X5405295Y2349500D02*
G01X5024295Y2349500D01*
G01X4262295Y2222500D02*
G01X4135295Y2349500D01*
G01X4262295Y2476500D01*
G01X5278295Y2222500D02*
G01X5405295Y2349500D01*
G01X5278295Y2476500D01*
G01X4897295Y1846774D02*
G01X4770295Y1719774D01*
G01X4643295Y1846774D01*
G01X4897295Y2862774D02*
G01X4770295Y2989774D01*
G01X4643295Y2862774D01*
G01X4770295Y2984500D02*
G01X4770295Y2603500D01*
G01X4135295Y2349500D02*
G01X4516295Y2349500D01*
G01X4770295Y1714500D02*
G01X4770295Y2095500D01*

G04 Rect Start*
G01X3817795Y635000D02*
G01X3817795Y-2286000D01*
G01X2293795Y-2286000D01*
G01X2293795Y635000D01*
G01X3817795Y635000D01*
G01X-5005238Y-1127506D02*
G01X-4497238Y-1127506D01*
G01X-4497238Y-1381506D01*
G01X-5005238Y-1381506D01*
G01X-5005238Y-1127506D01*
G01X-5005212Y-1381519D02*
G01X-4497212Y-1381519D01*
G01X-4497212Y-1635519D01*
G01X-5005212Y-1635519D01*
G01X-5005212Y-1381519D01*
G01X-5005238Y-1635506D02*
G01X-4497238Y-1635506D01*
G01X-4497238Y-1889506D01*
G01X-5005238Y-1889506D01*
G01X-5005238Y-1635506D01*
G01X-2465238Y-1889506D02*
G01X-2973238Y-1889506D01*
G01X-2973238Y-1635506D01*
G01X-2465238Y-1635506D01*
G01X-2465238Y-1889506D01*
G01X-2465238Y-1635506D02*
G01X-2973238Y-1635506D01*
G01X-2973238Y-1381506D01*
G01X-2465238Y-1381506D01*
G01X-2465238Y-1635506D01*
G01X-2465238Y-1381506D02*
G01X-2973238Y-1381506D01*
G01X-2973238Y-1127506D01*
G01X-2465238Y-1127506D01*
G01X-2465238Y-1381506D01*
G01X-4243238Y-1000506D02*
G01X-3227238Y-1000506D01*
G01X-3227238Y-2016506D01*
G01X-4243238Y-2016506D01*
G01X-4243238Y-1000506D01*
G01X-3591131Y2040598D02*
G01X-4099131Y2040598D01*
G01X-4099131Y2294598D01*
G01X-3591131Y2294598D01*
G01X-3591131Y2040598D01*
G01X-3591156Y2294611D02*
G01X-4099156Y2294611D01*
G01X-4099156Y2548611D01*
G01X-3591156Y2548611D01*
G01X-3591156Y2294611D01*
G01X-3591131Y2548598D02*
G01X-4099131Y2548598D01*
G01X-4099131Y2802598D01*
G01X-3591131Y2802598D01*
G01X-3591131Y2548598D01*
G01X-6131131Y2802598D02*
G01X-5623131Y2802598D01*
G01X-5623131Y2548598D01*
G01X-6131131Y2548598D01*
G01X-6131131Y2802598D01*
G01X-6131131Y2548598D02*
G01X-5623131Y2548598D01*
G01X-5623131Y2294598D01*
G01X-6131131Y2294598D01*
G01X-6131131Y2548598D01*
G01X-6131131Y2294598D02*
G01X-5623131Y2294598D01*
G01X-5623131Y2040598D01*
G01X-6131131Y2040598D01*
G01X-6131131Y2294598D01*
G01X5151295Y3619500D02*
G01X5151295Y3111500D01*
G01X4897295Y3111500D01*
G01X4897295Y3619500D01*
G01X5151295Y3619500D01*
G01X4897282Y3619475D02*
G01X4897282Y3111475D01*
G01X4643282Y3111475D01*
G01X4643282Y3619475D01*
G01X4897282Y3619475D01*
G01X4643295Y3619500D02*
G01X4643295Y3111500D01*
G01X4389295Y3111500D01*
G01X4389295Y3619500D01*
G01X4643295Y3619500D01*
G01X4389295Y1079500D02*
G01X4389295Y1587500D01*
G01X4643295Y1587500D01*
G01X4643295Y1079500D01*
G01X4389295Y1079500D01*
G01X4643295Y1079500D02*
G01X4643295Y1587500D01*
G01X4897295Y1587500D01*
G01X4897295Y1079500D01*
G01X4643295Y1079500D01*
G01X4897295Y1079500D02*
G01X4897295Y1587500D01*
G01X5151295Y1587500D01*
G01X5151295Y1079500D01*
G01X4897295Y1079500D01*
G04 Rect End*

G04 Circle Start*
G01X-4052738Y-1508506D02*
G03X-3417738Y-1508506I317500J0D01*
G03X-4052738Y-1508506I-317500J0D01*
G01X4516295Y2349500D02*
G03X5024295Y2349500I254000J0D01*
G03X4516295Y2349500I-254000J0D01*
G04 Circle End*

M02*

